G04 #@! TF.FileFunction,Soldermask,Top*
%FSLAX46Y46*%
G04 Gerber Fmt 4.6, Leading zero omitted, Abs format (unit mm)*
G04 Created by KiCad (PCBNEW (2015-03-26 BZR 5542)-product) date 4/10/2015 4:12:41 PM*
%MOMM*%
G01*
G04 APERTURE LIST*
%ADD10C,0.100000*%
%ADD11R,1.727200X1.727200*%
%ADD12O,1.727200X1.727200*%
%ADD13R,1.016000X1.016000*%
%ADD14R,0.508000X0.203200*%
%ADD15R,1.200000X0.900000*%
%ADD16R,2.032000X2.032000*%
%ADD17O,2.032000X2.032000*%
%ADD18R,2.032000X1.727200*%
%ADD19O,2.032000X1.727200*%
%ADD20R,1.727200X2.032000*%
%ADD21O,1.727200X2.032000*%
%ADD22R,0.900000X1.200000*%
%ADD23R,1.000000X2.000000*%
%ADD24R,2.235200X2.235200*%
%ADD25R,0.640000X4.750000*%
%ADD26C,2.000000*%
%ADD27C,1.250000*%
%ADD28R,0.700000X0.600000*%
%ADD29R,0.300000X0.400000*%
%ADD30C,5.461000*%
%ADD31R,1.800000X0.400000*%
%ADD32R,1.900000X2.300000*%
%ADD33R,1.900000X1.850000*%
G04 APERTURE END LIST*
D10*
D11*
X124460000Y-80010000D03*
D12*
X127000000Y-80010000D03*
X124460000Y-82550000D03*
X127000000Y-82550000D03*
X124460000Y-85090000D03*
X127000000Y-85090000D03*
X124460000Y-87630000D03*
X127000000Y-87630000D03*
X124460000Y-90170000D03*
X127000000Y-90170000D03*
X124460000Y-92710000D03*
X127000000Y-92710000D03*
X124460000Y-95250000D03*
X127000000Y-95250000D03*
X124460000Y-97790000D03*
X127000000Y-97790000D03*
X124460000Y-100330000D03*
X127000000Y-100330000D03*
X124460000Y-102870000D03*
X127000000Y-102870000D03*
X124460000Y-105410000D03*
X127000000Y-105410000D03*
X124460000Y-107950000D03*
X127000000Y-107950000D03*
X124460000Y-110490000D03*
X127000000Y-110490000D03*
X124460000Y-113030000D03*
X127000000Y-113030000D03*
X124460000Y-115570000D03*
X127000000Y-115570000D03*
X124460000Y-118110000D03*
X127000000Y-118110000D03*
X124460000Y-120650000D03*
X127000000Y-120650000D03*
X124460000Y-123190000D03*
X127000000Y-123190000D03*
X124460000Y-125730000D03*
X127000000Y-125730000D03*
D13*
X182041800Y-67157600D03*
X183311800Y-67157600D03*
D14*
X182676800Y-67157600D03*
D15*
X183980000Y-76327000D03*
X181780000Y-76327000D03*
X187536000Y-65024000D03*
X185336000Y-65024000D03*
D16*
X130810000Y-85090000D03*
D17*
X130810000Y-87630000D03*
D18*
X152400000Y-76200000D03*
D19*
X152400000Y-78740000D03*
X152400000Y-81280000D03*
X152400000Y-83820000D03*
D20*
X166370000Y-119380000D03*
D21*
X168910000Y-119380000D03*
X171450000Y-119380000D03*
D18*
X154940000Y-76200000D03*
D19*
X154940000Y-78740000D03*
X154940000Y-81280000D03*
X154940000Y-83820000D03*
D20*
X130810000Y-120650000D03*
D21*
X133350000Y-120650000D03*
X135890000Y-120650000D03*
D20*
X143510000Y-125730000D03*
D21*
X146050000Y-125730000D03*
X148590000Y-125730000D03*
D20*
X156210000Y-90170000D03*
D21*
X158750000Y-90170000D03*
X161290000Y-90170000D03*
D20*
X156210000Y-97790000D03*
D21*
X158750000Y-97790000D03*
X161290000Y-97790000D03*
D20*
X130810000Y-125730000D03*
D21*
X133350000Y-125730000D03*
X135890000Y-125730000D03*
D22*
X133070600Y-110710800D03*
X133070600Y-112910800D03*
X131724400Y-112910800D03*
X131724400Y-110710800D03*
X157734000Y-71686600D03*
X157734000Y-69486600D03*
D15*
X168130400Y-124536200D03*
X165930400Y-124536200D03*
X172626200Y-124510800D03*
X170426200Y-124510800D03*
X184030800Y-72644000D03*
X181830800Y-72644000D03*
D22*
X175717200Y-71661200D03*
X175717200Y-69461200D03*
D15*
X175125200Y-86817200D03*
X177325200Y-86817200D03*
X150030000Y-107950000D03*
X152230000Y-107950000D03*
X150030000Y-105410000D03*
X152230000Y-105410000D03*
X175125200Y-85471000D03*
X177325200Y-85471000D03*
X175125200Y-84124800D03*
X177325200Y-84124800D03*
X175125200Y-82778600D03*
X177325200Y-82778600D03*
X161120000Y-78740000D03*
X158920000Y-78740000D03*
X155405000Y-115951000D03*
X153205000Y-115951000D03*
X142460800Y-116103400D03*
X144660800Y-116103400D03*
X155379600Y-117576600D03*
X153179600Y-117576600D03*
D22*
X153797000Y-99017000D03*
X153797000Y-96817000D03*
D15*
X164076200Y-100863400D03*
X166276200Y-100863400D03*
X164076200Y-102209600D03*
X166276200Y-102209600D03*
D11*
X185420000Y-80010000D03*
D12*
X187960000Y-80010000D03*
X185420000Y-82550000D03*
X187960000Y-82550000D03*
X185420000Y-85090000D03*
X187960000Y-85090000D03*
X185420000Y-87630000D03*
X187960000Y-87630000D03*
X185420000Y-90170000D03*
X187960000Y-90170000D03*
X185420000Y-92710000D03*
X187960000Y-92710000D03*
X185420000Y-95250000D03*
X187960000Y-95250000D03*
X185420000Y-97790000D03*
X187960000Y-97790000D03*
X185420000Y-100330000D03*
X187960000Y-100330000D03*
X185420000Y-102870000D03*
X187960000Y-102870000D03*
X185420000Y-105410000D03*
X187960000Y-105410000D03*
X185420000Y-107950000D03*
X187960000Y-107950000D03*
X185420000Y-110490000D03*
X187960000Y-110490000D03*
X185420000Y-113030000D03*
X187960000Y-113030000D03*
X185420000Y-115570000D03*
X187960000Y-115570000D03*
X185420000Y-118110000D03*
X187960000Y-118110000D03*
X185420000Y-120650000D03*
X187960000Y-120650000D03*
X185420000Y-123190000D03*
X187960000Y-123190000D03*
X185420000Y-125730000D03*
X187960000Y-125730000D03*
D23*
X135490000Y-93090000D03*
X136990000Y-93090000D03*
X138490000Y-93090000D03*
X139990000Y-93090000D03*
X141490000Y-93090000D03*
X142990000Y-93090000D03*
X144490000Y-93090000D03*
X145990000Y-93090000D03*
X147490000Y-93090000D03*
X148990000Y-93090000D03*
X135490000Y-77090000D03*
X148990000Y-77090000D03*
D13*
X180644800Y-61468000D03*
X181914800Y-61468000D03*
X182753000Y-69240400D03*
X184023000Y-69240400D03*
D16*
X130810000Y-107950000D03*
D17*
X130810000Y-105410000D03*
D20*
X151130000Y-113030000D03*
D21*
X153670000Y-113030000D03*
X156210000Y-113030000D03*
X158750000Y-113030000D03*
D20*
X130810000Y-97790000D03*
D21*
X133350000Y-97790000D03*
X135890000Y-97790000D03*
X138430000Y-97790000D03*
X140970000Y-97790000D03*
X143510000Y-97790000D03*
D20*
X153670000Y-93980000D03*
D21*
X156210000Y-93980000D03*
X158750000Y-93980000D03*
X161290000Y-93980000D03*
D20*
X130810000Y-116840000D03*
D21*
X133350000Y-116840000D03*
X135890000Y-116840000D03*
D20*
X154940000Y-107950000D03*
D21*
X157480000Y-107950000D03*
X160020000Y-107950000D03*
X162560000Y-107950000D03*
D20*
X158750000Y-76200000D03*
D21*
X161290000Y-76200000D03*
X163830000Y-76200000D03*
D20*
X154940000Y-105410000D03*
D21*
X157480000Y-105410000D03*
X160020000Y-105410000D03*
X162560000Y-105410000D03*
D11*
X171450000Y-83820000D03*
D12*
X171450000Y-86360000D03*
X168910000Y-83820000D03*
X168910000Y-86360000D03*
X166370000Y-83820000D03*
X166370000Y-86360000D03*
X163830000Y-83820000D03*
X163830000Y-86360000D03*
X161290000Y-83820000D03*
X161290000Y-86360000D03*
X158750000Y-83820000D03*
X158750000Y-86360000D03*
D20*
X153670000Y-101600000D03*
D21*
X156210000Y-101600000D03*
X158750000Y-101600000D03*
X161290000Y-101600000D03*
D24*
X181991000Y-50419000D03*
D16*
X173990000Y-113030000D03*
D17*
X171450000Y-113030000D03*
D16*
X166370000Y-113030000D03*
D17*
X163830000Y-113030000D03*
D16*
X143510000Y-121920000D03*
D17*
X143510000Y-119380000D03*
D16*
X180340000Y-113030000D03*
D17*
X177800000Y-113030000D03*
D16*
X124460000Y-52070000D03*
D17*
X124460000Y-54610000D03*
D16*
X187960000Y-52070000D03*
D17*
X187960000Y-54610000D03*
D25*
X157602000Y-65531000D03*
X156332000Y-65531000D03*
X155062000Y-65531000D03*
X153792000Y-65531000D03*
X152532000Y-65531000D03*
X151262000Y-65531000D03*
X149992000Y-65531000D03*
X148722000Y-65531000D03*
D26*
X160882000Y-53086000D03*
X145442000Y-53086000D03*
D25*
X139568000Y-65531000D03*
X138298000Y-65531000D03*
X137028000Y-65531000D03*
X135758000Y-65531000D03*
X134498000Y-65531000D03*
X133228000Y-65531000D03*
X131958000Y-65531000D03*
X130688000Y-65531000D03*
D26*
X142848000Y-53086000D03*
X127408000Y-53086000D03*
D25*
X175636000Y-65531000D03*
X174366000Y-65531000D03*
X173096000Y-65531000D03*
X171826000Y-65531000D03*
X170566000Y-65531000D03*
X169296000Y-65531000D03*
X168026000Y-65531000D03*
X166756000Y-65531000D03*
D26*
X178916000Y-53086000D03*
X163476000Y-53086000D03*
D27*
X152398660Y-121917900D03*
X158898660Y-121917900D03*
X152398660Y-126417900D03*
X158898660Y-126417900D03*
D28*
X165938200Y-125969800D03*
X165938200Y-127369800D03*
D29*
X165938200Y-126999800D03*
D28*
X168198800Y-125969800D03*
X168198800Y-127369800D03*
D29*
X168198800Y-126999800D03*
D28*
X170408600Y-125919000D03*
X170408600Y-127319000D03*
D29*
X170408600Y-126949000D03*
D28*
X172669200Y-125893600D03*
X172669200Y-127293600D03*
D29*
X172669200Y-126923600D03*
D30*
X162407600Y-123240800D03*
X138887200Y-107035600D03*
X187198000Y-59791600D03*
D31*
X186180000Y-72166000D03*
X186180000Y-71516000D03*
X186180000Y-70866000D03*
X186180000Y-70216000D03*
X186180000Y-69566000D03*
D32*
X189230000Y-74616000D03*
X189230000Y-67116000D03*
D33*
X189230000Y-71991000D03*
X189230000Y-69741000D03*
M02*
