G04 #@! TF.FileFunction,Paste,Top*
%FSLAX46Y46*%
G04 Gerber Fmt 4.6, Leading zero omitted, Abs format (unit mm)*
G04 Created by KiCad (PCBNEW (2015-03-26 BZR 5542)-product) date 4/10/2015 4:22:22 PM*
%MOMM*%
G01*
G04 APERTURE LIST*
%ADD10C,0.100000*%
%ADD11R,1.016000X1.016000*%
%ADD12R,0.508000X0.203200*%
%ADD13R,1.200000X0.900000*%
%ADD14R,0.900000X1.200000*%
%ADD15R,1.000000X2.000000*%
%ADD16R,0.640000X4.750000*%
%ADD17R,0.700000X0.600000*%
%ADD18R,0.300000X0.400000*%
%ADD19R,1.800000X0.400000*%
%ADD20R,1.900000X2.300000*%
%ADD21R,1.900000X1.850000*%
G04 APERTURE END LIST*
D10*
D11*
X182041800Y-67157600D03*
X183311800Y-67157600D03*
D12*
X182676800Y-67157600D03*
D13*
X183980000Y-76327000D03*
X181780000Y-76327000D03*
X187536000Y-65024000D03*
X185336000Y-65024000D03*
D14*
X133070600Y-110710800D03*
X133070600Y-112910800D03*
X131724400Y-112910800D03*
X131724400Y-110710800D03*
X157734000Y-71686600D03*
X157734000Y-69486600D03*
D13*
X168130400Y-124536200D03*
X165930400Y-124536200D03*
X172626200Y-124510800D03*
X170426200Y-124510800D03*
X184030800Y-72644000D03*
X181830800Y-72644000D03*
D14*
X175717200Y-71661200D03*
X175717200Y-69461200D03*
D13*
X175125200Y-86817200D03*
X177325200Y-86817200D03*
X150030000Y-107950000D03*
X152230000Y-107950000D03*
X150030000Y-105410000D03*
X152230000Y-105410000D03*
X175125200Y-85471000D03*
X177325200Y-85471000D03*
X175125200Y-84124800D03*
X177325200Y-84124800D03*
X175125200Y-82778600D03*
X177325200Y-82778600D03*
X161120000Y-78740000D03*
X158920000Y-78740000D03*
X155405000Y-115951000D03*
X153205000Y-115951000D03*
X142460800Y-116103400D03*
X144660800Y-116103400D03*
X155379600Y-117576600D03*
X153179600Y-117576600D03*
D14*
X153797000Y-99017000D03*
X153797000Y-96817000D03*
D13*
X164076200Y-100863400D03*
X166276200Y-100863400D03*
X164076200Y-102209600D03*
X166276200Y-102209600D03*
D15*
X135490000Y-93090000D03*
X136990000Y-93090000D03*
X138490000Y-93090000D03*
X139990000Y-93090000D03*
X141490000Y-93090000D03*
X142990000Y-93090000D03*
X144490000Y-93090000D03*
X145990000Y-93090000D03*
X147490000Y-93090000D03*
X148990000Y-93090000D03*
X135490000Y-77090000D03*
X148990000Y-77090000D03*
D11*
X180644800Y-61468000D03*
X181914800Y-61468000D03*
X182753000Y-69240400D03*
X184023000Y-69240400D03*
D16*
X157602000Y-65531000D03*
X156332000Y-65531000D03*
X155062000Y-65531000D03*
X153792000Y-65531000D03*
X152532000Y-65531000D03*
X151262000Y-65531000D03*
X149992000Y-65531000D03*
X148722000Y-65531000D03*
X139568000Y-65531000D03*
X138298000Y-65531000D03*
X137028000Y-65531000D03*
X135758000Y-65531000D03*
X134498000Y-65531000D03*
X133228000Y-65531000D03*
X131958000Y-65531000D03*
X130688000Y-65531000D03*
X175636000Y-65531000D03*
X174366000Y-65531000D03*
X173096000Y-65531000D03*
X171826000Y-65531000D03*
X170566000Y-65531000D03*
X169296000Y-65531000D03*
X168026000Y-65531000D03*
X166756000Y-65531000D03*
D17*
X165938200Y-125969800D03*
X165938200Y-127369800D03*
D18*
X165938200Y-126999800D03*
D17*
X168198800Y-125969800D03*
X168198800Y-127369800D03*
D18*
X168198800Y-126999800D03*
D17*
X170408600Y-125919000D03*
X170408600Y-127319000D03*
D18*
X170408600Y-126949000D03*
D17*
X172669200Y-125893600D03*
X172669200Y-127293600D03*
D18*
X172669200Y-126923600D03*
D19*
X186180000Y-72166000D03*
X186180000Y-71516000D03*
X186180000Y-70866000D03*
X186180000Y-70216000D03*
X186180000Y-69566000D03*
D20*
X189230000Y-74616000D03*
X189230000Y-67116000D03*
D21*
X189230000Y-71991000D03*
X189230000Y-69741000D03*
M02*
