G04 #@! TF.FileFunction,Legend,Bot*
%FSLAX46Y46*%
G04 Gerber Fmt 4.6, Leading zero omitted, Abs format (unit mm)*
G04 Created by KiCad (PCBNEW (2015-03-26 BZR 5542)-product) date 4/10/2015 4:12:41 PM*
%MOMM*%
G01*
G04 APERTURE LIST*
%ADD10C,0.100000*%
%ADD11C,0.300000*%
%ADD12C,0.190500*%
%ADD13C,0.150000*%
G04 APERTURE END LIST*
D10*
D11*
X146679998Y-94833286D02*
X146679998Y-95547571D01*
X147179998Y-94047571D02*
X146679998Y-94833286D01*
X146179998Y-94047571D01*
X145679998Y-95547571D02*
X145679998Y-94047571D01*
X145179998Y-95119000D01*
X144679998Y-94047571D01*
X144679998Y-95547571D01*
X143965712Y-95547571D02*
X143965712Y-94047571D01*
X143608569Y-94047571D01*
X143394284Y-94119000D01*
X143251426Y-94261857D01*
X143179998Y-94404714D01*
X143108569Y-94690429D01*
X143108569Y-94904714D01*
X143179998Y-95190429D01*
X143251426Y-95333286D01*
X143394284Y-95476143D01*
X143608569Y-95547571D01*
X143965712Y-95547571D01*
X142465712Y-95404714D02*
X142394284Y-95476143D01*
X142465712Y-95547571D01*
X142537141Y-95476143D01*
X142465712Y-95404714D01*
X142465712Y-95547571D01*
X142465712Y-94619000D02*
X142394284Y-94690429D01*
X142465712Y-94761857D01*
X142537141Y-94690429D01*
X142465712Y-94619000D01*
X142465712Y-94761857D01*
X140679998Y-94190429D02*
X140608569Y-94119000D01*
X140465712Y-94047571D01*
X140108569Y-94047571D01*
X139965712Y-94119000D01*
X139894283Y-94190429D01*
X139822855Y-94333286D01*
X139822855Y-94476143D01*
X139894283Y-94690429D01*
X140751426Y-95547571D01*
X139822855Y-95547571D01*
X138894284Y-94047571D02*
X138751427Y-94047571D01*
X138608570Y-94119000D01*
X138537141Y-94190429D01*
X138465712Y-94333286D01*
X138394284Y-94619000D01*
X138394284Y-94976143D01*
X138465712Y-95261857D01*
X138537141Y-95404714D01*
X138608570Y-95476143D01*
X138751427Y-95547571D01*
X138894284Y-95547571D01*
X139037141Y-95476143D01*
X139108570Y-95404714D01*
X139179998Y-95261857D01*
X139251427Y-94976143D01*
X139251427Y-94619000D01*
X139179998Y-94333286D01*
X139108570Y-94190429D01*
X139037141Y-94119000D01*
X138894284Y-94047571D01*
X136965713Y-95547571D02*
X137822856Y-95547571D01*
X137394284Y-95547571D02*
X137394284Y-94047571D01*
X137537141Y-94261857D01*
X137679999Y-94404714D01*
X137822856Y-94476143D01*
X135608570Y-94047571D02*
X136322856Y-94047571D01*
X136394285Y-94761857D01*
X136322856Y-94690429D01*
X136179999Y-94619000D01*
X135822856Y-94619000D01*
X135679999Y-94690429D01*
X135608570Y-94761857D01*
X135537142Y-94904714D01*
X135537142Y-95261857D01*
X135608570Y-95404714D01*
X135679999Y-95476143D01*
X135822856Y-95547571D01*
X136179999Y-95547571D01*
X136322856Y-95476143D01*
X136394285Y-95404714D01*
X134608571Y-94047571D02*
X134465714Y-94047571D01*
X134322857Y-94119000D01*
X134251428Y-94190429D01*
X134179999Y-94333286D01*
X134108571Y-94619000D01*
X134108571Y-94976143D01*
X134179999Y-95261857D01*
X134251428Y-95404714D01*
X134322857Y-95476143D01*
X134465714Y-95547571D01*
X134608571Y-95547571D01*
X134751428Y-95476143D01*
X134822857Y-95404714D01*
X134894285Y-95261857D01*
X134965714Y-94976143D01*
X134965714Y-94619000D01*
X134894285Y-94333286D01*
X134822857Y-94190429D01*
X134751428Y-94119000D01*
X134608571Y-94047571D01*
X132822857Y-94547571D02*
X132822857Y-95547571D01*
X133180000Y-93976143D02*
X133537143Y-95047571D01*
X132608571Y-95047571D01*
X131251429Y-95547571D02*
X132108572Y-95547571D01*
X131680000Y-95547571D02*
X131680000Y-94047571D01*
X131822857Y-94261857D01*
X131965715Y-94404714D01*
X132108572Y-94476143D01*
X130322858Y-94047571D02*
X130180001Y-94047571D01*
X130037144Y-94119000D01*
X129965715Y-94190429D01*
X129894286Y-94333286D01*
X129822858Y-94619000D01*
X129822858Y-94976143D01*
X129894286Y-95261857D01*
X129965715Y-95404714D01*
X130037144Y-95476143D01*
X130180001Y-95547571D01*
X130322858Y-95547571D01*
X130465715Y-95476143D01*
X130537144Y-95404714D01*
X130608572Y-95261857D01*
X130680001Y-94976143D01*
X130680001Y-94619000D01*
X130608572Y-94333286D01*
X130537144Y-94190429D01*
X130465715Y-94119000D01*
X130322858Y-94047571D01*
D12*
X140826309Y-62256851D02*
X140826309Y-62002851D01*
X140427166Y-61893994D02*
X140427166Y-62256851D01*
X141189166Y-62256851D01*
X141189166Y-61893994D01*
X140427166Y-61639994D02*
X140935166Y-61240851D01*
X140935166Y-61639994D02*
X140427166Y-61240851D01*
X140935166Y-61059423D02*
X140935166Y-60769137D01*
X141189166Y-60950565D02*
X140536023Y-60950565D01*
X140463451Y-60914280D01*
X140427166Y-60841708D01*
X140427166Y-60769137D01*
X140427166Y-59934565D02*
X141189166Y-59934565D01*
X141189166Y-59644280D01*
X141152880Y-59571708D01*
X141116594Y-59535423D01*
X141044023Y-59499137D01*
X140935166Y-59499137D01*
X140862594Y-59535423D01*
X140826309Y-59571708D01*
X140790023Y-59644280D01*
X140790023Y-59934565D01*
X140427166Y-59063708D02*
X140463451Y-59136280D01*
X140499737Y-59172565D01*
X140572309Y-59208851D01*
X140790023Y-59208851D01*
X140862594Y-59172565D01*
X140898880Y-59136280D01*
X140935166Y-59063708D01*
X140935166Y-58954851D01*
X140898880Y-58882280D01*
X140862594Y-58845994D01*
X140790023Y-58809708D01*
X140572309Y-58809708D01*
X140499737Y-58845994D01*
X140463451Y-58882280D01*
X140427166Y-58954851D01*
X140427166Y-59063708D01*
X140935166Y-58555708D02*
X140427166Y-58410565D01*
X140790023Y-58265422D01*
X140427166Y-58120279D01*
X140935166Y-57975136D01*
X140463451Y-57394565D02*
X140427166Y-57467136D01*
X140427166Y-57612279D01*
X140463451Y-57684850D01*
X140536023Y-57721136D01*
X140826309Y-57721136D01*
X140898880Y-57684850D01*
X140935166Y-57612279D01*
X140935166Y-57467136D01*
X140898880Y-57394565D01*
X140826309Y-57358279D01*
X140753737Y-57358279D01*
X140681166Y-57721136D01*
X140427166Y-57031707D02*
X140935166Y-57031707D01*
X140790023Y-57031707D02*
X140862594Y-56995422D01*
X140898880Y-56959136D01*
X140935166Y-56886565D01*
X140935166Y-56813993D01*
X140499737Y-55543994D02*
X140463451Y-55580280D01*
X140427166Y-55689137D01*
X140427166Y-55761708D01*
X140463451Y-55870565D01*
X140536023Y-55943137D01*
X140608594Y-55979422D01*
X140753737Y-56015708D01*
X140862594Y-56015708D01*
X141007737Y-55979422D01*
X141080309Y-55943137D01*
X141152880Y-55870565D01*
X141189166Y-55761708D01*
X141189166Y-55689137D01*
X141152880Y-55580280D01*
X141116594Y-55543994D01*
X140427166Y-55108565D02*
X140463451Y-55181137D01*
X140499737Y-55217422D01*
X140572309Y-55253708D01*
X140790023Y-55253708D01*
X140862594Y-55217422D01*
X140898880Y-55181137D01*
X140935166Y-55108565D01*
X140935166Y-54999708D01*
X140898880Y-54927137D01*
X140862594Y-54890851D01*
X140790023Y-54854565D01*
X140572309Y-54854565D01*
X140499737Y-54890851D01*
X140463451Y-54927137D01*
X140427166Y-54999708D01*
X140427166Y-55108565D01*
X140935166Y-54527993D02*
X140427166Y-54527993D01*
X140862594Y-54527993D02*
X140898880Y-54491708D01*
X140935166Y-54419136D01*
X140935166Y-54310279D01*
X140898880Y-54237708D01*
X140826309Y-54201422D01*
X140427166Y-54201422D01*
X140935166Y-53838564D02*
X140427166Y-53838564D01*
X140862594Y-53838564D02*
X140898880Y-53802279D01*
X140935166Y-53729707D01*
X140935166Y-53620850D01*
X140898880Y-53548279D01*
X140826309Y-53511993D01*
X140427166Y-53511993D01*
X140463451Y-52858850D02*
X140427166Y-52931421D01*
X140427166Y-53076564D01*
X140463451Y-53149135D01*
X140536023Y-53185421D01*
X140826309Y-53185421D01*
X140898880Y-53149135D01*
X140935166Y-53076564D01*
X140935166Y-52931421D01*
X140898880Y-52858850D01*
X140826309Y-52822564D01*
X140753737Y-52822564D01*
X140681166Y-53185421D01*
X140463451Y-52169421D02*
X140427166Y-52241992D01*
X140427166Y-52387135D01*
X140463451Y-52459707D01*
X140499737Y-52495992D01*
X140572309Y-52532278D01*
X140790023Y-52532278D01*
X140862594Y-52495992D01*
X140898880Y-52459707D01*
X140935166Y-52387135D01*
X140935166Y-52241992D01*
X140898880Y-52169421D01*
X140935166Y-51951707D02*
X140935166Y-51661421D01*
X141189166Y-51842849D02*
X140536023Y-51842849D01*
X140463451Y-51806564D01*
X140427166Y-51733992D01*
X140427166Y-51661421D01*
X140427166Y-51407420D02*
X140935166Y-51407420D01*
X141189166Y-51407420D02*
X141152880Y-51443706D01*
X141116594Y-51407420D01*
X141152880Y-51371135D01*
X141189166Y-51407420D01*
X141116594Y-51407420D01*
X140427166Y-50935706D02*
X140463451Y-51008278D01*
X140499737Y-51044563D01*
X140572309Y-51080849D01*
X140790023Y-51080849D01*
X140862594Y-51044563D01*
X140898880Y-51008278D01*
X140935166Y-50935706D01*
X140935166Y-50826849D01*
X140898880Y-50754278D01*
X140862594Y-50717992D01*
X140790023Y-50681706D01*
X140572309Y-50681706D01*
X140499737Y-50717992D01*
X140463451Y-50754278D01*
X140427166Y-50826849D01*
X140427166Y-50935706D01*
X140935166Y-50355134D02*
X140427166Y-50355134D01*
X140862594Y-50355134D02*
X140898880Y-50318849D01*
X140935166Y-50246277D01*
X140935166Y-50137420D01*
X140898880Y-50064849D01*
X140826309Y-50028563D01*
X140427166Y-50028563D01*
X139169866Y-61857709D02*
X139169866Y-62293137D01*
X139169866Y-62075423D02*
X139931866Y-62075423D01*
X139823009Y-62147994D01*
X139750437Y-62220566D01*
X139714151Y-62293137D01*
X139242437Y-61531137D02*
X139206151Y-61494852D01*
X139169866Y-61531137D01*
X139206151Y-61567423D01*
X139242437Y-61531137D01*
X139169866Y-61531137D01*
X139169866Y-60587709D02*
X139931866Y-60587709D01*
X139387580Y-60333709D01*
X139931866Y-60079709D01*
X139169866Y-60079709D01*
X139169866Y-59607995D02*
X139206151Y-59680567D01*
X139242437Y-59716852D01*
X139315009Y-59753138D01*
X139532723Y-59753138D01*
X139605294Y-59716852D01*
X139641580Y-59680567D01*
X139677866Y-59607995D01*
X139677866Y-59499138D01*
X139641580Y-59426567D01*
X139605294Y-59390281D01*
X139532723Y-59353995D01*
X139315009Y-59353995D01*
X139242437Y-59390281D01*
X139206151Y-59426567D01*
X139169866Y-59499138D01*
X139169866Y-59607995D01*
X139677866Y-59136281D02*
X139677866Y-58845995D01*
X139931866Y-59027423D02*
X139278723Y-59027423D01*
X139206151Y-58991138D01*
X139169866Y-58918566D01*
X139169866Y-58845995D01*
X139169866Y-58591994D02*
X139677866Y-58591994D01*
X139931866Y-58591994D02*
X139895580Y-58628280D01*
X139859294Y-58591994D01*
X139895580Y-58555709D01*
X139931866Y-58591994D01*
X139859294Y-58591994D01*
X139169866Y-58120280D02*
X139206151Y-58192852D01*
X139242437Y-58229137D01*
X139315009Y-58265423D01*
X139532723Y-58265423D01*
X139605294Y-58229137D01*
X139641580Y-58192852D01*
X139677866Y-58120280D01*
X139677866Y-58011423D01*
X139641580Y-57938852D01*
X139605294Y-57902566D01*
X139532723Y-57866280D01*
X139315009Y-57866280D01*
X139242437Y-57902566D01*
X139206151Y-57938852D01*
X139169866Y-58011423D01*
X139169866Y-58120280D01*
X139677866Y-57539708D02*
X139169866Y-57539708D01*
X139605294Y-57539708D02*
X139641580Y-57503423D01*
X139677866Y-57430851D01*
X139677866Y-57321994D01*
X139641580Y-57249423D01*
X139569009Y-57213137D01*
X139169866Y-57213137D01*
X139206151Y-56886565D02*
X139169866Y-56777708D01*
X139169866Y-56596279D01*
X139206151Y-56523708D01*
X139242437Y-56487422D01*
X139315009Y-56451137D01*
X139387580Y-56451137D01*
X139460151Y-56487422D01*
X139496437Y-56523708D01*
X139532723Y-56596279D01*
X139569009Y-56741422D01*
X139605294Y-56813994D01*
X139641580Y-56850279D01*
X139714151Y-56886565D01*
X139786723Y-56886565D01*
X139859294Y-56850279D01*
X139895580Y-56813994D01*
X139931866Y-56741422D01*
X139931866Y-56559994D01*
X139895580Y-56451137D01*
X139206151Y-55834280D02*
X139169866Y-55906851D01*
X139169866Y-56051994D01*
X139206151Y-56124565D01*
X139278723Y-56160851D01*
X139569009Y-56160851D01*
X139641580Y-56124565D01*
X139677866Y-56051994D01*
X139677866Y-55906851D01*
X139641580Y-55834280D01*
X139569009Y-55797994D01*
X139496437Y-55797994D01*
X139423866Y-56160851D01*
X139677866Y-55471422D02*
X139169866Y-55471422D01*
X139605294Y-55471422D02*
X139641580Y-55435137D01*
X139677866Y-55362565D01*
X139677866Y-55253708D01*
X139641580Y-55181137D01*
X139569009Y-55144851D01*
X139169866Y-55144851D01*
X139206151Y-54818279D02*
X139169866Y-54745708D01*
X139169866Y-54600565D01*
X139206151Y-54527993D01*
X139278723Y-54491708D01*
X139315009Y-54491708D01*
X139387580Y-54527993D01*
X139423866Y-54600565D01*
X139423866Y-54709422D01*
X139460151Y-54781993D01*
X139532723Y-54818279D01*
X139569009Y-54818279D01*
X139641580Y-54781993D01*
X139677866Y-54709422D01*
X139677866Y-54600565D01*
X139641580Y-54527993D01*
X139206151Y-53874851D02*
X139169866Y-53947422D01*
X139169866Y-54092565D01*
X139206151Y-54165136D01*
X139278723Y-54201422D01*
X139569009Y-54201422D01*
X139641580Y-54165136D01*
X139677866Y-54092565D01*
X139677866Y-53947422D01*
X139641580Y-53874851D01*
X139569009Y-53838565D01*
X139496437Y-53838565D01*
X139423866Y-54201422D01*
X139931866Y-53584565D02*
X139931866Y-53112851D01*
X139641580Y-53366851D01*
X139641580Y-53257993D01*
X139605294Y-53185422D01*
X139569009Y-53149136D01*
X139496437Y-53112851D01*
X139315009Y-53112851D01*
X139242437Y-53149136D01*
X139206151Y-53185422D01*
X139169866Y-53257993D01*
X139169866Y-53475708D01*
X139206151Y-53548279D01*
X139242437Y-53584565D01*
X138601994Y-62293137D02*
X138638280Y-62256851D01*
X138674566Y-62184280D01*
X138674566Y-62002851D01*
X138638280Y-61930280D01*
X138601994Y-61893994D01*
X138529423Y-61857709D01*
X138456851Y-61857709D01*
X138347994Y-61893994D01*
X137912566Y-62329423D01*
X137912566Y-61857709D01*
X137985137Y-61531137D02*
X137948851Y-61494852D01*
X137912566Y-61531137D01*
X137948851Y-61567423D01*
X137985137Y-61531137D01*
X137912566Y-61531137D01*
X137912566Y-60587709D02*
X138674566Y-60587709D01*
X138130280Y-60333709D01*
X138674566Y-60079709D01*
X137912566Y-60079709D01*
X137912566Y-59607995D02*
X137948851Y-59680567D01*
X137985137Y-59716852D01*
X138057709Y-59753138D01*
X138275423Y-59753138D01*
X138347994Y-59716852D01*
X138384280Y-59680567D01*
X138420566Y-59607995D01*
X138420566Y-59499138D01*
X138384280Y-59426567D01*
X138347994Y-59390281D01*
X138275423Y-59353995D01*
X138057709Y-59353995D01*
X137985137Y-59390281D01*
X137948851Y-59426567D01*
X137912566Y-59499138D01*
X137912566Y-59607995D01*
X138420566Y-59136281D02*
X138420566Y-58845995D01*
X138674566Y-59027423D02*
X138021423Y-59027423D01*
X137948851Y-58991138D01*
X137912566Y-58918566D01*
X137912566Y-58845995D01*
X137912566Y-58591994D02*
X138420566Y-58591994D01*
X138674566Y-58591994D02*
X138638280Y-58628280D01*
X138601994Y-58591994D01*
X138638280Y-58555709D01*
X138674566Y-58591994D01*
X138601994Y-58591994D01*
X137912566Y-58120280D02*
X137948851Y-58192852D01*
X137985137Y-58229137D01*
X138057709Y-58265423D01*
X138275423Y-58265423D01*
X138347994Y-58229137D01*
X138384280Y-58192852D01*
X138420566Y-58120280D01*
X138420566Y-58011423D01*
X138384280Y-57938852D01*
X138347994Y-57902566D01*
X138275423Y-57866280D01*
X138057709Y-57866280D01*
X137985137Y-57902566D01*
X137948851Y-57938852D01*
X137912566Y-58011423D01*
X137912566Y-58120280D01*
X138420566Y-57539708D02*
X137912566Y-57539708D01*
X138347994Y-57539708D02*
X138384280Y-57503423D01*
X138420566Y-57430851D01*
X138420566Y-57321994D01*
X138384280Y-57249423D01*
X138311709Y-57213137D01*
X137912566Y-57213137D01*
X137948851Y-56886565D02*
X137912566Y-56777708D01*
X137912566Y-56596279D01*
X137948851Y-56523708D01*
X137985137Y-56487422D01*
X138057709Y-56451137D01*
X138130280Y-56451137D01*
X138202851Y-56487422D01*
X138239137Y-56523708D01*
X138275423Y-56596279D01*
X138311709Y-56741422D01*
X138347994Y-56813994D01*
X138384280Y-56850279D01*
X138456851Y-56886565D01*
X138529423Y-56886565D01*
X138601994Y-56850279D01*
X138638280Y-56813994D01*
X138674566Y-56741422D01*
X138674566Y-56559994D01*
X138638280Y-56451137D01*
X137948851Y-55834280D02*
X137912566Y-55906851D01*
X137912566Y-56051994D01*
X137948851Y-56124565D01*
X138021423Y-56160851D01*
X138311709Y-56160851D01*
X138384280Y-56124565D01*
X138420566Y-56051994D01*
X138420566Y-55906851D01*
X138384280Y-55834280D01*
X138311709Y-55797994D01*
X138239137Y-55797994D01*
X138166566Y-56160851D01*
X138420566Y-55471422D02*
X137912566Y-55471422D01*
X138347994Y-55471422D02*
X138384280Y-55435137D01*
X138420566Y-55362565D01*
X138420566Y-55253708D01*
X138384280Y-55181137D01*
X138311709Y-55144851D01*
X137912566Y-55144851D01*
X137948851Y-54818279D02*
X137912566Y-54745708D01*
X137912566Y-54600565D01*
X137948851Y-54527993D01*
X138021423Y-54491708D01*
X138057709Y-54491708D01*
X138130280Y-54527993D01*
X138166566Y-54600565D01*
X138166566Y-54709422D01*
X138202851Y-54781993D01*
X138275423Y-54818279D01*
X138311709Y-54818279D01*
X138384280Y-54781993D01*
X138420566Y-54709422D01*
X138420566Y-54600565D01*
X138384280Y-54527993D01*
X137948851Y-53874851D02*
X137912566Y-53947422D01*
X137912566Y-54092565D01*
X137948851Y-54165136D01*
X138021423Y-54201422D01*
X138311709Y-54201422D01*
X138384280Y-54165136D01*
X138420566Y-54092565D01*
X138420566Y-53947422D01*
X138384280Y-53874851D01*
X138311709Y-53838565D01*
X138239137Y-53838565D01*
X138166566Y-54201422D01*
X138420566Y-53185422D02*
X137912566Y-53185422D01*
X138710851Y-53366851D02*
X138166566Y-53548279D01*
X138166566Y-53076565D01*
X137417266Y-62329423D02*
X137417266Y-61857709D01*
X137126980Y-62111709D01*
X137126980Y-62002851D01*
X137090694Y-61930280D01*
X137054409Y-61893994D01*
X136981837Y-61857709D01*
X136800409Y-61857709D01*
X136727837Y-61893994D01*
X136691551Y-61930280D01*
X136655266Y-62002851D01*
X136655266Y-62220566D01*
X136691551Y-62293137D01*
X136727837Y-62329423D01*
X136727837Y-61531137D02*
X136691551Y-61494852D01*
X136655266Y-61531137D01*
X136691551Y-61567423D01*
X136727837Y-61531137D01*
X136655266Y-61531137D01*
X136691551Y-60623995D02*
X136655266Y-60515138D01*
X136655266Y-60333709D01*
X136691551Y-60261138D01*
X136727837Y-60224852D01*
X136800409Y-60188567D01*
X136872980Y-60188567D01*
X136945551Y-60224852D01*
X136981837Y-60261138D01*
X137018123Y-60333709D01*
X137054409Y-60478852D01*
X137090694Y-60551424D01*
X137126980Y-60587709D01*
X137199551Y-60623995D01*
X137272123Y-60623995D01*
X137344694Y-60587709D01*
X137380980Y-60551424D01*
X137417266Y-60478852D01*
X137417266Y-60297424D01*
X137380980Y-60188567D01*
X137163266Y-59970853D02*
X137163266Y-59680567D01*
X137417266Y-59861995D02*
X136764123Y-59861995D01*
X136691551Y-59825710D01*
X136655266Y-59753138D01*
X136655266Y-59680567D01*
X136655266Y-59099995D02*
X137054409Y-59099995D01*
X137126980Y-59136281D01*
X137163266Y-59208852D01*
X137163266Y-59353995D01*
X137126980Y-59426566D01*
X136691551Y-59099995D02*
X136655266Y-59172566D01*
X136655266Y-59353995D01*
X136691551Y-59426566D01*
X136764123Y-59462852D01*
X136836694Y-59462852D01*
X136909266Y-59426566D01*
X136945551Y-59353995D01*
X136945551Y-59172566D01*
X136981837Y-59099995D01*
X137163266Y-58845995D02*
X137163266Y-58555709D01*
X137417266Y-58737137D02*
X136764123Y-58737137D01*
X136691551Y-58700852D01*
X136655266Y-58628280D01*
X136655266Y-58555709D01*
X137163266Y-57975137D02*
X136655266Y-57975137D01*
X137163266Y-58301708D02*
X136764123Y-58301708D01*
X136691551Y-58265423D01*
X136655266Y-58192851D01*
X136655266Y-58083994D01*
X136691551Y-58011423D01*
X136727837Y-57975137D01*
X136691551Y-57648565D02*
X136655266Y-57575994D01*
X136655266Y-57430851D01*
X136691551Y-57358279D01*
X136764123Y-57321994D01*
X136800409Y-57321994D01*
X136872980Y-57358279D01*
X136909266Y-57430851D01*
X136909266Y-57539708D01*
X136945551Y-57612279D01*
X137018123Y-57648565D01*
X137054409Y-57648565D01*
X137126980Y-57612279D01*
X137163266Y-57539708D01*
X137163266Y-57430851D01*
X137126980Y-57358279D01*
X136655266Y-56632565D02*
X136655266Y-56995422D01*
X137417266Y-56995422D01*
X136691551Y-56088280D02*
X136655266Y-56160851D01*
X136655266Y-56305994D01*
X136691551Y-56378565D01*
X136764123Y-56414851D01*
X137054409Y-56414851D01*
X137126980Y-56378565D01*
X137163266Y-56305994D01*
X137163266Y-56160851D01*
X137126980Y-56088280D01*
X137054409Y-56051994D01*
X136981837Y-56051994D01*
X136909266Y-56414851D01*
X136655266Y-55398851D02*
X137417266Y-55398851D01*
X136691551Y-55398851D02*
X136655266Y-55471422D01*
X136655266Y-55616565D01*
X136691551Y-55689137D01*
X136727837Y-55725422D01*
X136800409Y-55761708D01*
X137018123Y-55761708D01*
X137090694Y-55725422D01*
X137126980Y-55689137D01*
X137163266Y-55616565D01*
X137163266Y-55471422D01*
X137126980Y-55398851D01*
X137163266Y-54709422D02*
X136655266Y-54709422D01*
X137453551Y-54890851D02*
X136909266Y-55072279D01*
X136909266Y-54600565D01*
X135905966Y-61930280D02*
X135397966Y-61930280D01*
X136196251Y-62111709D02*
X135651966Y-62293137D01*
X135651966Y-61821423D01*
X135470537Y-61531137D02*
X135434251Y-61494852D01*
X135397966Y-61531137D01*
X135434251Y-61567423D01*
X135470537Y-61531137D01*
X135397966Y-61531137D01*
X135434251Y-60623995D02*
X135397966Y-60515138D01*
X135397966Y-60333709D01*
X135434251Y-60261138D01*
X135470537Y-60224852D01*
X135543109Y-60188567D01*
X135615680Y-60188567D01*
X135688251Y-60224852D01*
X135724537Y-60261138D01*
X135760823Y-60333709D01*
X135797109Y-60478852D01*
X135833394Y-60551424D01*
X135869680Y-60587709D01*
X135942251Y-60623995D01*
X136014823Y-60623995D01*
X136087394Y-60587709D01*
X136123680Y-60551424D01*
X136159966Y-60478852D01*
X136159966Y-60297424D01*
X136123680Y-60188567D01*
X135397966Y-59861995D02*
X136159966Y-59861995D01*
X136159966Y-59571710D01*
X136123680Y-59499138D01*
X136087394Y-59462853D01*
X136014823Y-59426567D01*
X135905966Y-59426567D01*
X135833394Y-59462853D01*
X135797109Y-59499138D01*
X135760823Y-59571710D01*
X135760823Y-59861995D01*
X135397966Y-59099995D02*
X136159966Y-59099995D01*
X135470537Y-57721139D02*
X135434251Y-57757425D01*
X135397966Y-57866282D01*
X135397966Y-57938853D01*
X135434251Y-58047710D01*
X135506823Y-58120282D01*
X135579394Y-58156567D01*
X135724537Y-58192853D01*
X135833394Y-58192853D01*
X135978537Y-58156567D01*
X136051109Y-58120282D01*
X136123680Y-58047710D01*
X136159966Y-57938853D01*
X136159966Y-57866282D01*
X136123680Y-57757425D01*
X136087394Y-57721139D01*
X135397966Y-57031710D02*
X135397966Y-57394567D01*
X136159966Y-57394567D01*
X135397966Y-56777710D02*
X136159966Y-56777710D01*
X135397966Y-56342282D02*
X135833394Y-56668853D01*
X136159966Y-56342282D02*
X135724537Y-56777710D01*
X134902666Y-61893994D02*
X134902666Y-62256851D01*
X134539809Y-62293137D01*
X134576094Y-62256851D01*
X134612380Y-62184280D01*
X134612380Y-62002851D01*
X134576094Y-61930280D01*
X134539809Y-61893994D01*
X134467237Y-61857709D01*
X134285809Y-61857709D01*
X134213237Y-61893994D01*
X134176951Y-61930280D01*
X134140666Y-62002851D01*
X134140666Y-62184280D01*
X134176951Y-62256851D01*
X134213237Y-62293137D01*
X134213237Y-61531137D02*
X134176951Y-61494852D01*
X134140666Y-61531137D01*
X134176951Y-61567423D01*
X134213237Y-61531137D01*
X134140666Y-61531137D01*
X134176951Y-60623995D02*
X134140666Y-60515138D01*
X134140666Y-60333709D01*
X134176951Y-60261138D01*
X134213237Y-60224852D01*
X134285809Y-60188567D01*
X134358380Y-60188567D01*
X134430951Y-60224852D01*
X134467237Y-60261138D01*
X134503523Y-60333709D01*
X134539809Y-60478852D01*
X134576094Y-60551424D01*
X134612380Y-60587709D01*
X134684951Y-60623995D01*
X134757523Y-60623995D01*
X134830094Y-60587709D01*
X134866380Y-60551424D01*
X134902666Y-60478852D01*
X134902666Y-60297424D01*
X134866380Y-60188567D01*
X134140666Y-59861995D02*
X134902666Y-59861995D01*
X134902666Y-59571710D01*
X134866380Y-59499138D01*
X134830094Y-59462853D01*
X134757523Y-59426567D01*
X134648666Y-59426567D01*
X134576094Y-59462853D01*
X134539809Y-59499138D01*
X134503523Y-59571710D01*
X134503523Y-59861995D01*
X134140666Y-59099995D02*
X134902666Y-59099995D01*
X134140666Y-58156567D02*
X134902666Y-58156567D01*
X134358380Y-57902567D01*
X134902666Y-57648567D01*
X134140666Y-57648567D01*
X134902666Y-57140568D02*
X134902666Y-56995425D01*
X134866380Y-56922853D01*
X134793809Y-56850282D01*
X134648666Y-56813996D01*
X134394666Y-56813996D01*
X134249523Y-56850282D01*
X134176951Y-56922853D01*
X134140666Y-56995425D01*
X134140666Y-57140568D01*
X134176951Y-57213139D01*
X134249523Y-57285710D01*
X134394666Y-57321996D01*
X134648666Y-57321996D01*
X134793809Y-57285710D01*
X134866380Y-57213139D01*
X134902666Y-57140568D01*
X134176951Y-56523710D02*
X134140666Y-56414853D01*
X134140666Y-56233424D01*
X134176951Y-56160853D01*
X134213237Y-56124567D01*
X134285809Y-56088282D01*
X134358380Y-56088282D01*
X134430951Y-56124567D01*
X134467237Y-56160853D01*
X134503523Y-56233424D01*
X134539809Y-56378567D01*
X134576094Y-56451139D01*
X134612380Y-56487424D01*
X134684951Y-56523710D01*
X134757523Y-56523710D01*
X134830094Y-56487424D01*
X134866380Y-56451139D01*
X134902666Y-56378567D01*
X134902666Y-56197139D01*
X134866380Y-56088282D01*
X134140666Y-55761710D02*
X134902666Y-55761710D01*
X133645366Y-61930280D02*
X133645366Y-62075423D01*
X133609080Y-62147994D01*
X133572794Y-62184280D01*
X133463937Y-62256851D01*
X133318794Y-62293137D01*
X133028509Y-62293137D01*
X132955937Y-62256851D01*
X132919651Y-62220566D01*
X132883366Y-62147994D01*
X132883366Y-62002851D01*
X132919651Y-61930280D01*
X132955937Y-61893994D01*
X133028509Y-61857709D01*
X133209937Y-61857709D01*
X133282509Y-61893994D01*
X133318794Y-61930280D01*
X133355080Y-62002851D01*
X133355080Y-62147994D01*
X133318794Y-62220566D01*
X133282509Y-62256851D01*
X133209937Y-62293137D01*
X132955937Y-61531137D02*
X132919651Y-61494852D01*
X132883366Y-61531137D01*
X132919651Y-61567423D01*
X132955937Y-61531137D01*
X132883366Y-61531137D01*
X132919651Y-60623995D02*
X132883366Y-60515138D01*
X132883366Y-60333709D01*
X132919651Y-60261138D01*
X132955937Y-60224852D01*
X133028509Y-60188567D01*
X133101080Y-60188567D01*
X133173651Y-60224852D01*
X133209937Y-60261138D01*
X133246223Y-60333709D01*
X133282509Y-60478852D01*
X133318794Y-60551424D01*
X133355080Y-60587709D01*
X133427651Y-60623995D01*
X133500223Y-60623995D01*
X133572794Y-60587709D01*
X133609080Y-60551424D01*
X133645366Y-60478852D01*
X133645366Y-60297424D01*
X133609080Y-60188567D01*
X132883366Y-59861995D02*
X133645366Y-59861995D01*
X133645366Y-59571710D01*
X133609080Y-59499138D01*
X133572794Y-59462853D01*
X133500223Y-59426567D01*
X133391366Y-59426567D01*
X133318794Y-59462853D01*
X133282509Y-59499138D01*
X133246223Y-59571710D01*
X133246223Y-59861995D01*
X132883366Y-59099995D02*
X133645366Y-59099995D01*
X132883366Y-58156567D02*
X133645366Y-58156567D01*
X133101080Y-57902567D01*
X133645366Y-57648567D01*
X132883366Y-57648567D01*
X132883366Y-57285710D02*
X133645366Y-57285710D01*
X132919651Y-56959139D02*
X132883366Y-56850282D01*
X132883366Y-56668853D01*
X132919651Y-56596282D01*
X132955937Y-56559996D01*
X133028509Y-56523711D01*
X133101080Y-56523711D01*
X133173651Y-56559996D01*
X133209937Y-56596282D01*
X133246223Y-56668853D01*
X133282509Y-56813996D01*
X133318794Y-56886568D01*
X133355080Y-56922853D01*
X133427651Y-56959139D01*
X133500223Y-56959139D01*
X133572794Y-56922853D01*
X133609080Y-56886568D01*
X133645366Y-56813996D01*
X133645366Y-56632568D01*
X133609080Y-56523711D01*
X133645366Y-56051997D02*
X133645366Y-55906854D01*
X133609080Y-55834282D01*
X133536509Y-55761711D01*
X133391366Y-55725425D01*
X133137366Y-55725425D01*
X132992223Y-55761711D01*
X132919651Y-55834282D01*
X132883366Y-55906854D01*
X132883366Y-56051997D01*
X132919651Y-56124568D01*
X132992223Y-56197139D01*
X133137366Y-56233425D01*
X133391366Y-56233425D01*
X133536509Y-56197139D01*
X133609080Y-56124568D01*
X133645366Y-56051997D01*
X132388066Y-62329423D02*
X132388066Y-61821423D01*
X131626066Y-62147994D01*
X131698637Y-61531137D02*
X131662351Y-61494852D01*
X131626066Y-61531137D01*
X131662351Y-61567423D01*
X131698637Y-61531137D01*
X131626066Y-61531137D01*
X132025209Y-60587709D02*
X132025209Y-60333709D01*
X131626066Y-60224852D02*
X131626066Y-60587709D01*
X132388066Y-60587709D01*
X132388066Y-60224852D01*
X132388066Y-59535423D02*
X132388066Y-59898280D01*
X132025209Y-59934566D01*
X132061494Y-59898280D01*
X132097780Y-59825709D01*
X132097780Y-59644280D01*
X132061494Y-59571709D01*
X132025209Y-59535423D01*
X131952637Y-59499138D01*
X131771209Y-59499138D01*
X131698637Y-59535423D01*
X131662351Y-59571709D01*
X131626066Y-59644280D01*
X131626066Y-59825709D01*
X131662351Y-59898280D01*
X131698637Y-59934566D01*
X132388066Y-59281424D02*
X131626066Y-59027424D01*
X132388066Y-58773424D01*
X130804194Y-62147994D02*
X130840480Y-62220566D01*
X130876766Y-62256851D01*
X130949337Y-62293137D01*
X130985623Y-62293137D01*
X131058194Y-62256851D01*
X131094480Y-62220566D01*
X131130766Y-62147994D01*
X131130766Y-62002851D01*
X131094480Y-61930280D01*
X131058194Y-61893994D01*
X130985623Y-61857709D01*
X130949337Y-61857709D01*
X130876766Y-61893994D01*
X130840480Y-61930280D01*
X130804194Y-62002851D01*
X130804194Y-62147994D01*
X130767909Y-62220566D01*
X130731623Y-62256851D01*
X130659051Y-62293137D01*
X130513909Y-62293137D01*
X130441337Y-62256851D01*
X130405051Y-62220566D01*
X130368766Y-62147994D01*
X130368766Y-62002851D01*
X130405051Y-61930280D01*
X130441337Y-61893994D01*
X130513909Y-61857709D01*
X130659051Y-61857709D01*
X130731623Y-61893994D01*
X130767909Y-61930280D01*
X130804194Y-62002851D01*
X130441337Y-61531137D02*
X130405051Y-61494852D01*
X130368766Y-61531137D01*
X130405051Y-61567423D01*
X130441337Y-61531137D01*
X130368766Y-61531137D01*
X131094480Y-60188567D02*
X131130766Y-60261138D01*
X131130766Y-60369995D01*
X131094480Y-60478852D01*
X131021909Y-60551424D01*
X130949337Y-60587709D01*
X130804194Y-60623995D01*
X130695337Y-60623995D01*
X130550194Y-60587709D01*
X130477623Y-60551424D01*
X130405051Y-60478852D01*
X130368766Y-60369995D01*
X130368766Y-60297424D01*
X130405051Y-60188567D01*
X130441337Y-60152281D01*
X130695337Y-60152281D01*
X130695337Y-60297424D01*
X130876766Y-59825709D02*
X130368766Y-59825709D01*
X130804194Y-59825709D02*
X130840480Y-59789424D01*
X130876766Y-59716852D01*
X130876766Y-59607995D01*
X130840480Y-59535424D01*
X130767909Y-59499138D01*
X130368766Y-59499138D01*
X130368766Y-58809709D02*
X131130766Y-58809709D01*
X130405051Y-58809709D02*
X130368766Y-58882280D01*
X130368766Y-59027423D01*
X130405051Y-59099995D01*
X130441337Y-59136280D01*
X130513909Y-59172566D01*
X130731623Y-59172566D01*
X130804194Y-59136280D01*
X130840480Y-59099995D01*
X130876766Y-59027423D01*
X130876766Y-58882280D01*
X130840480Y-58809709D01*
X166569571Y-62353371D02*
X166315571Y-62353371D01*
X166206714Y-62752514D02*
X166569571Y-62752514D01*
X166569571Y-61990514D01*
X166206714Y-61990514D01*
X165952714Y-62752514D02*
X165553571Y-62244514D01*
X165952714Y-62244514D02*
X165553571Y-62752514D01*
X165372143Y-62244514D02*
X165081857Y-62244514D01*
X165263285Y-61990514D02*
X165263285Y-62643657D01*
X165227000Y-62716229D01*
X165154428Y-62752514D01*
X165081857Y-62752514D01*
X163993285Y-62353371D02*
X163884428Y-62389657D01*
X163848143Y-62425943D01*
X163811857Y-62498514D01*
X163811857Y-62607371D01*
X163848143Y-62679943D01*
X163884428Y-62716229D01*
X163957000Y-62752514D01*
X164247285Y-62752514D01*
X164247285Y-61990514D01*
X163993285Y-61990514D01*
X163920714Y-62026800D01*
X163884428Y-62063086D01*
X163848143Y-62135657D01*
X163848143Y-62208229D01*
X163884428Y-62280800D01*
X163920714Y-62317086D01*
X163993285Y-62353371D01*
X164247285Y-62353371D01*
X163158714Y-62244514D02*
X163158714Y-62752514D01*
X163485285Y-62244514D02*
X163485285Y-62643657D01*
X163449000Y-62716229D01*
X163376428Y-62752514D01*
X163267571Y-62752514D01*
X163195000Y-62716229D01*
X163158714Y-62679943D01*
X162832142Y-62716229D02*
X162759571Y-62752514D01*
X162614428Y-62752514D01*
X162541856Y-62716229D01*
X162505571Y-62643657D01*
X162505571Y-62607371D01*
X162541856Y-62534800D01*
X162614428Y-62498514D01*
X162723285Y-62498514D01*
X162795856Y-62462229D01*
X162832142Y-62389657D01*
X162832142Y-62353371D01*
X162795856Y-62280800D01*
X162723285Y-62244514D01*
X162614428Y-62244514D01*
X162541856Y-62280800D01*
X161598428Y-62752514D02*
X161598428Y-61990514D01*
X161308143Y-61990514D01*
X161235571Y-62026800D01*
X161199286Y-62063086D01*
X161163000Y-62135657D01*
X161163000Y-62244514D01*
X161199286Y-62317086D01*
X161235571Y-62353371D01*
X161308143Y-62389657D01*
X161598428Y-62389657D01*
X160836428Y-62752514D02*
X160836428Y-62244514D01*
X160836428Y-61990514D02*
X160872714Y-62026800D01*
X160836428Y-62063086D01*
X160800143Y-62026800D01*
X160836428Y-61990514D01*
X160836428Y-62063086D01*
X160473571Y-62244514D02*
X160473571Y-62752514D01*
X160473571Y-62317086D02*
X160437286Y-62280800D01*
X160364714Y-62244514D01*
X160255857Y-62244514D01*
X160183286Y-62280800D01*
X160147000Y-62353371D01*
X160147000Y-62752514D01*
X159058429Y-61990514D02*
X158913286Y-61990514D01*
X158840714Y-62026800D01*
X158768143Y-62099371D01*
X158731857Y-62244514D01*
X158731857Y-62498514D01*
X158768143Y-62643657D01*
X158840714Y-62716229D01*
X158913286Y-62752514D01*
X159058429Y-62752514D01*
X159131000Y-62716229D01*
X159203571Y-62643657D01*
X159239857Y-62498514D01*
X159239857Y-62244514D01*
X159203571Y-62099371D01*
X159131000Y-62026800D01*
X159058429Y-61990514D01*
X158078714Y-62244514D02*
X158078714Y-62752514D01*
X158405285Y-62244514D02*
X158405285Y-62643657D01*
X158369000Y-62716229D01*
X158296428Y-62752514D01*
X158187571Y-62752514D01*
X158115000Y-62716229D01*
X158078714Y-62679943D01*
X157824714Y-62244514D02*
X157534428Y-62244514D01*
X157715856Y-61990514D02*
X157715856Y-62643657D01*
X157679571Y-62716229D01*
X157606999Y-62752514D01*
X157534428Y-62752514D01*
X166170429Y-64009814D02*
X166605857Y-64009814D01*
X166388143Y-64009814D02*
X166388143Y-63247814D01*
X166460714Y-63356671D01*
X166533286Y-63429243D01*
X166605857Y-63465529D01*
X165843857Y-63937243D02*
X165807572Y-63973529D01*
X165843857Y-64009814D01*
X165880143Y-63973529D01*
X165843857Y-63937243D01*
X165843857Y-64009814D01*
X164973001Y-63247814D02*
X164501287Y-63247814D01*
X164755287Y-63538100D01*
X164646429Y-63538100D01*
X164573858Y-63574386D01*
X164537572Y-63610671D01*
X164501287Y-63683243D01*
X164501287Y-63864671D01*
X164537572Y-63937243D01*
X164573858Y-63973529D01*
X164646429Y-64009814D01*
X164864144Y-64009814D01*
X164936715Y-63973529D01*
X164973001Y-63937243D01*
X164174715Y-63937243D02*
X164138430Y-63973529D01*
X164174715Y-64009814D01*
X164211001Y-63973529D01*
X164174715Y-63937243D01*
X164174715Y-64009814D01*
X163884430Y-63247814D02*
X163412716Y-63247814D01*
X163666716Y-63538100D01*
X163557858Y-63538100D01*
X163485287Y-63574386D01*
X163449001Y-63610671D01*
X163412716Y-63683243D01*
X163412716Y-63864671D01*
X163449001Y-63937243D01*
X163485287Y-63973529D01*
X163557858Y-64009814D01*
X163775573Y-64009814D01*
X163848144Y-63973529D01*
X163884430Y-63937243D01*
X163158716Y-63501814D02*
X162977287Y-64009814D01*
X162795859Y-63501814D01*
X166605857Y-64577686D02*
X166569571Y-64541400D01*
X166497000Y-64505114D01*
X166315571Y-64505114D01*
X166243000Y-64541400D01*
X166206714Y-64577686D01*
X166170429Y-64650257D01*
X166170429Y-64722829D01*
X166206714Y-64831686D01*
X166642143Y-65267114D01*
X166170429Y-65267114D01*
X165843857Y-65194543D02*
X165807572Y-65230829D01*
X165843857Y-65267114D01*
X165880143Y-65230829D01*
X165843857Y-65194543D01*
X165843857Y-65267114D01*
X164501287Y-64541400D02*
X164573858Y-64505114D01*
X164682715Y-64505114D01*
X164791572Y-64541400D01*
X164864144Y-64613971D01*
X164900429Y-64686543D01*
X164936715Y-64831686D01*
X164936715Y-64940543D01*
X164900429Y-65085686D01*
X164864144Y-65158257D01*
X164791572Y-65230829D01*
X164682715Y-65267114D01*
X164610144Y-65267114D01*
X164501287Y-65230829D01*
X164465001Y-65194543D01*
X164465001Y-64940543D01*
X164610144Y-64940543D01*
X164138429Y-64759114D02*
X164138429Y-65267114D01*
X164138429Y-64831686D02*
X164102144Y-64795400D01*
X164029572Y-64759114D01*
X163920715Y-64759114D01*
X163848144Y-64795400D01*
X163811858Y-64867971D01*
X163811858Y-65267114D01*
X163122429Y-65267114D02*
X163122429Y-64505114D01*
X163122429Y-65230829D02*
X163195000Y-65267114D01*
X163340143Y-65267114D01*
X163412715Y-65230829D01*
X163449000Y-65194543D01*
X163485286Y-65121971D01*
X163485286Y-64904257D01*
X163449000Y-64831686D01*
X163412715Y-64795400D01*
X163340143Y-64759114D01*
X163195000Y-64759114D01*
X163122429Y-64795400D01*
X166642143Y-65762414D02*
X166170429Y-65762414D01*
X166424429Y-66052700D01*
X166315571Y-66052700D01*
X166243000Y-66088986D01*
X166206714Y-66125271D01*
X166170429Y-66197843D01*
X166170429Y-66379271D01*
X166206714Y-66451843D01*
X166243000Y-66488129D01*
X166315571Y-66524414D01*
X166533286Y-66524414D01*
X166605857Y-66488129D01*
X166642143Y-66451843D01*
X165843857Y-66451843D02*
X165807572Y-66488129D01*
X165843857Y-66524414D01*
X165880143Y-66488129D01*
X165843857Y-66451843D01*
X165843857Y-66524414D01*
X164936715Y-66488129D02*
X164827858Y-66524414D01*
X164646429Y-66524414D01*
X164573858Y-66488129D01*
X164537572Y-66451843D01*
X164501287Y-66379271D01*
X164501287Y-66306700D01*
X164537572Y-66234129D01*
X164573858Y-66197843D01*
X164646429Y-66161557D01*
X164791572Y-66125271D01*
X164864144Y-66088986D01*
X164900429Y-66052700D01*
X164936715Y-65980129D01*
X164936715Y-65907557D01*
X164900429Y-65834986D01*
X164864144Y-65798700D01*
X164791572Y-65762414D01*
X164610144Y-65762414D01*
X164501287Y-65798700D01*
X164174715Y-66524414D02*
X164174715Y-65762414D01*
X163884430Y-65762414D01*
X163811858Y-65798700D01*
X163775573Y-65834986D01*
X163739287Y-65907557D01*
X163739287Y-66016414D01*
X163775573Y-66088986D01*
X163811858Y-66125271D01*
X163884430Y-66161557D01*
X164174715Y-66161557D01*
X163412715Y-66524414D02*
X163412715Y-65762414D01*
X162033859Y-66451843D02*
X162070145Y-66488129D01*
X162179002Y-66524414D01*
X162251573Y-66524414D01*
X162360430Y-66488129D01*
X162433002Y-66415557D01*
X162469287Y-66342986D01*
X162505573Y-66197843D01*
X162505573Y-66088986D01*
X162469287Y-65943843D01*
X162433002Y-65871271D01*
X162360430Y-65798700D01*
X162251573Y-65762414D01*
X162179002Y-65762414D01*
X162070145Y-65798700D01*
X162033859Y-65834986D01*
X161743573Y-66488129D02*
X161634716Y-66524414D01*
X161453287Y-66524414D01*
X161380716Y-66488129D01*
X161344430Y-66451843D01*
X161308145Y-66379271D01*
X161308145Y-66306700D01*
X161344430Y-66234129D01*
X161380716Y-66197843D01*
X161453287Y-66161557D01*
X161598430Y-66125271D01*
X161671002Y-66088986D01*
X161707287Y-66052700D01*
X161743573Y-65980129D01*
X161743573Y-65907557D01*
X161707287Y-65834986D01*
X161671002Y-65798700D01*
X161598430Y-65762414D01*
X161417002Y-65762414D01*
X161308145Y-65798700D01*
X166243000Y-67273714D02*
X166243000Y-67781714D01*
X166424429Y-66983429D02*
X166605857Y-67527714D01*
X166134143Y-67527714D01*
X165843857Y-67709143D02*
X165807572Y-67745429D01*
X165843857Y-67781714D01*
X165880143Y-67745429D01*
X165843857Y-67709143D01*
X165843857Y-67781714D01*
X164936715Y-67745429D02*
X164827858Y-67781714D01*
X164646429Y-67781714D01*
X164573858Y-67745429D01*
X164537572Y-67709143D01*
X164501287Y-67636571D01*
X164501287Y-67564000D01*
X164537572Y-67491429D01*
X164573858Y-67455143D01*
X164646429Y-67418857D01*
X164791572Y-67382571D01*
X164864144Y-67346286D01*
X164900429Y-67310000D01*
X164936715Y-67237429D01*
X164936715Y-67164857D01*
X164900429Y-67092286D01*
X164864144Y-67056000D01*
X164791572Y-67019714D01*
X164610144Y-67019714D01*
X164501287Y-67056000D01*
X164174715Y-67781714D02*
X164174715Y-67019714D01*
X163884430Y-67019714D01*
X163811858Y-67056000D01*
X163775573Y-67092286D01*
X163739287Y-67164857D01*
X163739287Y-67273714D01*
X163775573Y-67346286D01*
X163811858Y-67382571D01*
X163884430Y-67418857D01*
X164174715Y-67418857D01*
X163412715Y-67781714D02*
X163412715Y-67019714D01*
X162033859Y-67709143D02*
X162070145Y-67745429D01*
X162179002Y-67781714D01*
X162251573Y-67781714D01*
X162360430Y-67745429D01*
X162433002Y-67672857D01*
X162469287Y-67600286D01*
X162505573Y-67455143D01*
X162505573Y-67346286D01*
X162469287Y-67201143D01*
X162433002Y-67128571D01*
X162360430Y-67056000D01*
X162251573Y-67019714D01*
X162179002Y-67019714D01*
X162070145Y-67056000D01*
X162033859Y-67092286D01*
X161344430Y-67781714D02*
X161707287Y-67781714D01*
X161707287Y-67019714D01*
X161090430Y-67781714D02*
X161090430Y-67019714D01*
X160655002Y-67781714D02*
X160981573Y-67346286D01*
X160655002Y-67019714D02*
X161090430Y-67455143D01*
X166206714Y-68277014D02*
X166569571Y-68277014D01*
X166605857Y-68639871D01*
X166569571Y-68603586D01*
X166497000Y-68567300D01*
X166315571Y-68567300D01*
X166243000Y-68603586D01*
X166206714Y-68639871D01*
X166170429Y-68712443D01*
X166170429Y-68893871D01*
X166206714Y-68966443D01*
X166243000Y-69002729D01*
X166315571Y-69039014D01*
X166497000Y-69039014D01*
X166569571Y-69002729D01*
X166605857Y-68966443D01*
X165843857Y-68966443D02*
X165807572Y-69002729D01*
X165843857Y-69039014D01*
X165880143Y-69002729D01*
X165843857Y-68966443D01*
X165843857Y-69039014D01*
X164936715Y-69002729D02*
X164827858Y-69039014D01*
X164646429Y-69039014D01*
X164573858Y-69002729D01*
X164537572Y-68966443D01*
X164501287Y-68893871D01*
X164501287Y-68821300D01*
X164537572Y-68748729D01*
X164573858Y-68712443D01*
X164646429Y-68676157D01*
X164791572Y-68639871D01*
X164864144Y-68603586D01*
X164900429Y-68567300D01*
X164936715Y-68494729D01*
X164936715Y-68422157D01*
X164900429Y-68349586D01*
X164864144Y-68313300D01*
X164791572Y-68277014D01*
X164610144Y-68277014D01*
X164501287Y-68313300D01*
X164174715Y-69039014D02*
X164174715Y-68277014D01*
X163884430Y-68277014D01*
X163811858Y-68313300D01*
X163775573Y-68349586D01*
X163739287Y-68422157D01*
X163739287Y-68531014D01*
X163775573Y-68603586D01*
X163811858Y-68639871D01*
X163884430Y-68676157D01*
X164174715Y-68676157D01*
X163412715Y-69039014D02*
X163412715Y-68277014D01*
X162469287Y-69039014D02*
X162469287Y-68277014D01*
X162215287Y-68821300D01*
X161961287Y-68277014D01*
X161961287Y-69039014D01*
X161453288Y-68277014D02*
X161308145Y-68277014D01*
X161235573Y-68313300D01*
X161163002Y-68385871D01*
X161126716Y-68531014D01*
X161126716Y-68785014D01*
X161163002Y-68930157D01*
X161235573Y-69002729D01*
X161308145Y-69039014D01*
X161453288Y-69039014D01*
X161525859Y-69002729D01*
X161598430Y-68930157D01*
X161634716Y-68785014D01*
X161634716Y-68531014D01*
X161598430Y-68385871D01*
X161525859Y-68313300D01*
X161453288Y-68277014D01*
X160836430Y-69002729D02*
X160727573Y-69039014D01*
X160546144Y-69039014D01*
X160473573Y-69002729D01*
X160437287Y-68966443D01*
X160401002Y-68893871D01*
X160401002Y-68821300D01*
X160437287Y-68748729D01*
X160473573Y-68712443D01*
X160546144Y-68676157D01*
X160691287Y-68639871D01*
X160763859Y-68603586D01*
X160800144Y-68567300D01*
X160836430Y-68494729D01*
X160836430Y-68422157D01*
X160800144Y-68349586D01*
X160763859Y-68313300D01*
X160691287Y-68277014D01*
X160509859Y-68277014D01*
X160401002Y-68313300D01*
X160074430Y-69039014D02*
X160074430Y-68277014D01*
X166243000Y-69534314D02*
X166388143Y-69534314D01*
X166460714Y-69570600D01*
X166497000Y-69606886D01*
X166569571Y-69715743D01*
X166605857Y-69860886D01*
X166605857Y-70151171D01*
X166569571Y-70223743D01*
X166533286Y-70260029D01*
X166460714Y-70296314D01*
X166315571Y-70296314D01*
X166243000Y-70260029D01*
X166206714Y-70223743D01*
X166170429Y-70151171D01*
X166170429Y-69969743D01*
X166206714Y-69897171D01*
X166243000Y-69860886D01*
X166315571Y-69824600D01*
X166460714Y-69824600D01*
X166533286Y-69860886D01*
X166569571Y-69897171D01*
X166605857Y-69969743D01*
X165843857Y-70223743D02*
X165807572Y-70260029D01*
X165843857Y-70296314D01*
X165880143Y-70260029D01*
X165843857Y-70223743D01*
X165843857Y-70296314D01*
X164936715Y-70260029D02*
X164827858Y-70296314D01*
X164646429Y-70296314D01*
X164573858Y-70260029D01*
X164537572Y-70223743D01*
X164501287Y-70151171D01*
X164501287Y-70078600D01*
X164537572Y-70006029D01*
X164573858Y-69969743D01*
X164646429Y-69933457D01*
X164791572Y-69897171D01*
X164864144Y-69860886D01*
X164900429Y-69824600D01*
X164936715Y-69752029D01*
X164936715Y-69679457D01*
X164900429Y-69606886D01*
X164864144Y-69570600D01*
X164791572Y-69534314D01*
X164610144Y-69534314D01*
X164501287Y-69570600D01*
X164174715Y-70296314D02*
X164174715Y-69534314D01*
X163884430Y-69534314D01*
X163811858Y-69570600D01*
X163775573Y-69606886D01*
X163739287Y-69679457D01*
X163739287Y-69788314D01*
X163775573Y-69860886D01*
X163811858Y-69897171D01*
X163884430Y-69933457D01*
X164174715Y-69933457D01*
X163412715Y-70296314D02*
X163412715Y-69534314D01*
X162469287Y-70296314D02*
X162469287Y-69534314D01*
X162215287Y-70078600D01*
X161961287Y-69534314D01*
X161961287Y-70296314D01*
X161598430Y-70296314D02*
X161598430Y-69534314D01*
X161271859Y-70260029D02*
X161163002Y-70296314D01*
X160981573Y-70296314D01*
X160909002Y-70260029D01*
X160872716Y-70223743D01*
X160836431Y-70151171D01*
X160836431Y-70078600D01*
X160872716Y-70006029D01*
X160909002Y-69969743D01*
X160981573Y-69933457D01*
X161126716Y-69897171D01*
X161199288Y-69860886D01*
X161235573Y-69824600D01*
X161271859Y-69752029D01*
X161271859Y-69679457D01*
X161235573Y-69606886D01*
X161199288Y-69570600D01*
X161126716Y-69534314D01*
X160945288Y-69534314D01*
X160836431Y-69570600D01*
X160364717Y-69534314D02*
X160219574Y-69534314D01*
X160147002Y-69570600D01*
X160074431Y-69643171D01*
X160038145Y-69788314D01*
X160038145Y-70042314D01*
X160074431Y-70187457D01*
X160147002Y-70260029D01*
X160219574Y-70296314D01*
X160364717Y-70296314D01*
X160437288Y-70260029D01*
X160509859Y-70187457D01*
X160546145Y-70042314D01*
X160546145Y-69788314D01*
X160509859Y-69643171D01*
X160437288Y-69570600D01*
X160364717Y-69534314D01*
X166642143Y-70791614D02*
X166134143Y-70791614D01*
X166460714Y-71553614D01*
X165843857Y-71481043D02*
X165807572Y-71517329D01*
X165843857Y-71553614D01*
X165880143Y-71517329D01*
X165843857Y-71481043D01*
X165843857Y-71553614D01*
X164936715Y-71335900D02*
X164573858Y-71335900D01*
X165009287Y-71553614D02*
X164755287Y-70791614D01*
X164501287Y-71553614D01*
X164247286Y-71553614D02*
X164247286Y-70791614D01*
X164065858Y-70791614D01*
X163957001Y-70827900D01*
X163884429Y-70900471D01*
X163848144Y-70973043D01*
X163811858Y-71118186D01*
X163811858Y-71227043D01*
X163848144Y-71372186D01*
X163884429Y-71444757D01*
X163957001Y-71517329D01*
X164065858Y-71553614D01*
X164247286Y-71553614D01*
X163049858Y-71481043D02*
X163086144Y-71517329D01*
X163195001Y-71553614D01*
X163267572Y-71553614D01*
X163376429Y-71517329D01*
X163449001Y-71444757D01*
X163485286Y-71372186D01*
X163521572Y-71227043D01*
X163521572Y-71118186D01*
X163485286Y-70973043D01*
X163449001Y-70900471D01*
X163376429Y-70827900D01*
X163267572Y-70791614D01*
X163195001Y-70791614D01*
X163086144Y-70827900D01*
X163049858Y-70864186D01*
X166460714Y-72375486D02*
X166533286Y-72339200D01*
X166569571Y-72302914D01*
X166605857Y-72230343D01*
X166605857Y-72194057D01*
X166569571Y-72121486D01*
X166533286Y-72085200D01*
X166460714Y-72048914D01*
X166315571Y-72048914D01*
X166243000Y-72085200D01*
X166206714Y-72121486D01*
X166170429Y-72194057D01*
X166170429Y-72230343D01*
X166206714Y-72302914D01*
X166243000Y-72339200D01*
X166315571Y-72375486D01*
X166460714Y-72375486D01*
X166533286Y-72411771D01*
X166569571Y-72448057D01*
X166605857Y-72520629D01*
X166605857Y-72665771D01*
X166569571Y-72738343D01*
X166533286Y-72774629D01*
X166460714Y-72810914D01*
X166315571Y-72810914D01*
X166243000Y-72774629D01*
X166206714Y-72738343D01*
X166170429Y-72665771D01*
X166170429Y-72520629D01*
X166206714Y-72448057D01*
X166243000Y-72411771D01*
X166315571Y-72375486D01*
X165843857Y-72738343D02*
X165807572Y-72774629D01*
X165843857Y-72810914D01*
X165880143Y-72774629D01*
X165843857Y-72738343D01*
X165843857Y-72810914D01*
X164501287Y-72085200D02*
X164573858Y-72048914D01*
X164682715Y-72048914D01*
X164791572Y-72085200D01*
X164864144Y-72157771D01*
X164900429Y-72230343D01*
X164936715Y-72375486D01*
X164936715Y-72484343D01*
X164900429Y-72629486D01*
X164864144Y-72702057D01*
X164791572Y-72774629D01*
X164682715Y-72810914D01*
X164610144Y-72810914D01*
X164501287Y-72774629D01*
X164465001Y-72738343D01*
X164465001Y-72484343D01*
X164610144Y-72484343D01*
X164138429Y-72810914D02*
X164138429Y-72048914D01*
X163848144Y-72048914D01*
X163775572Y-72085200D01*
X163739287Y-72121486D01*
X163703001Y-72194057D01*
X163703001Y-72302914D01*
X163739287Y-72375486D01*
X163775572Y-72411771D01*
X163848144Y-72448057D01*
X164138429Y-72448057D01*
X163376429Y-72810914D02*
X163376429Y-72048914D01*
X162868430Y-72048914D02*
X162723287Y-72048914D01*
X162650715Y-72085200D01*
X162578144Y-72157771D01*
X162541858Y-72302914D01*
X162541858Y-72556914D01*
X162578144Y-72702057D01*
X162650715Y-72774629D01*
X162723287Y-72810914D01*
X162868430Y-72810914D01*
X162941001Y-72774629D01*
X163013572Y-72702057D01*
X163049858Y-72556914D01*
X163049858Y-72302914D01*
X163013572Y-72157771D01*
X162941001Y-72085200D01*
X162868430Y-72048914D01*
X161671001Y-72012629D02*
X162324144Y-72992343D01*
X161417000Y-72810914D02*
X161417000Y-72048914D01*
X161235572Y-72048914D01*
X161126715Y-72085200D01*
X161054143Y-72157771D01*
X161017858Y-72230343D01*
X160981572Y-72375486D01*
X160981572Y-72484343D01*
X161017858Y-72629486D01*
X161054143Y-72702057D01*
X161126715Y-72774629D01*
X161235572Y-72810914D01*
X161417000Y-72810914D01*
X160691286Y-72593200D02*
X160328429Y-72593200D01*
X160763858Y-72810914D02*
X160509858Y-72048914D01*
X160255858Y-72810914D01*
X159566429Y-72738343D02*
X159602715Y-72774629D01*
X159711572Y-72810914D01*
X159784143Y-72810914D01*
X159893000Y-72774629D01*
X159965572Y-72702057D01*
X160001857Y-72629486D01*
X160038143Y-72484343D01*
X160038143Y-72375486D01*
X160001857Y-72230343D01*
X159965572Y-72157771D01*
X159893000Y-72085200D01*
X159784143Y-72048914D01*
X159711572Y-72048914D01*
X159602715Y-72085200D01*
X159566429Y-72121486D01*
X158441572Y-73101200D02*
X158477858Y-73064914D01*
X158550429Y-72956057D01*
X158586715Y-72883486D01*
X158623001Y-72774629D01*
X158659286Y-72593200D01*
X158659286Y-72448057D01*
X158623001Y-72266629D01*
X158586715Y-72157771D01*
X158550429Y-72085200D01*
X158477858Y-71976343D01*
X158441572Y-71940057D01*
X158223858Y-72048914D02*
X157752144Y-72048914D01*
X158006144Y-72339200D01*
X157897286Y-72339200D01*
X157824715Y-72375486D01*
X157788429Y-72411771D01*
X157752144Y-72484343D01*
X157752144Y-72665771D01*
X157788429Y-72738343D01*
X157824715Y-72774629D01*
X157897286Y-72810914D01*
X158115001Y-72810914D01*
X158187572Y-72774629D01*
X158223858Y-72738343D01*
X157425572Y-72738343D02*
X157389287Y-72774629D01*
X157425572Y-72810914D01*
X157461858Y-72774629D01*
X157425572Y-72738343D01*
X157425572Y-72810914D01*
X157135287Y-72048914D02*
X156663573Y-72048914D01*
X156917573Y-72339200D01*
X156808715Y-72339200D01*
X156736144Y-72375486D01*
X156699858Y-72411771D01*
X156663573Y-72484343D01*
X156663573Y-72665771D01*
X156699858Y-72738343D01*
X156736144Y-72774629D01*
X156808715Y-72810914D01*
X157026430Y-72810914D01*
X157099001Y-72774629D01*
X157135287Y-72738343D01*
X156445859Y-72048914D02*
X156191859Y-72810914D01*
X155937859Y-72048914D01*
X154994430Y-72810914D02*
X155067002Y-72774629D01*
X155103287Y-72738343D01*
X155139573Y-72665771D01*
X155139573Y-72448057D01*
X155103287Y-72375486D01*
X155067002Y-72339200D01*
X154994430Y-72302914D01*
X154885573Y-72302914D01*
X154813002Y-72339200D01*
X154776716Y-72375486D01*
X154740430Y-72448057D01*
X154740430Y-72665771D01*
X154776716Y-72738343D01*
X154813002Y-72774629D01*
X154885573Y-72810914D01*
X154994430Y-72810914D01*
X154413858Y-72302914D02*
X154413858Y-72810914D01*
X154413858Y-72375486D02*
X154377573Y-72339200D01*
X154305001Y-72302914D01*
X154196144Y-72302914D01*
X154123573Y-72339200D01*
X154087287Y-72411771D01*
X154087287Y-72810914D01*
X153615572Y-72810914D02*
X153688144Y-72774629D01*
X153724429Y-72702057D01*
X153724429Y-72048914D01*
X153397858Y-72302914D02*
X153216429Y-72810914D01*
X153035001Y-72302914D02*
X153216429Y-72810914D01*
X153289001Y-72992343D01*
X153325286Y-73028629D01*
X153397858Y-73064914D01*
X152817287Y-73101200D02*
X152781001Y-73064914D01*
X152708430Y-72956057D01*
X152672144Y-72883486D01*
X152635858Y-72774629D01*
X152599573Y-72593200D01*
X152599573Y-72448057D01*
X152635858Y-72266629D01*
X152672144Y-72157771D01*
X152708430Y-72085200D01*
X152781001Y-71976343D01*
X152817287Y-71940057D01*
X174262143Y-48967571D02*
X174008143Y-48967571D01*
X173899286Y-49366714D02*
X174262143Y-49366714D01*
X174262143Y-48604714D01*
X173899286Y-48604714D01*
X173645286Y-49366714D02*
X173246143Y-48858714D01*
X173645286Y-48858714D02*
X173246143Y-49366714D01*
X173064715Y-48858714D02*
X172774429Y-48858714D01*
X172955857Y-48604714D02*
X172955857Y-49257857D01*
X172919572Y-49330429D01*
X172847000Y-49366714D01*
X172774429Y-49366714D01*
X172230143Y-49330429D02*
X172302714Y-49366714D01*
X172447857Y-49366714D01*
X172520428Y-49330429D01*
X172556714Y-49257857D01*
X172556714Y-48967571D01*
X172520428Y-48895000D01*
X172447857Y-48858714D01*
X172302714Y-48858714D01*
X172230143Y-48895000D01*
X172193857Y-48967571D01*
X172193857Y-49040143D01*
X172556714Y-49112714D01*
X171867285Y-48858714D02*
X171867285Y-49366714D01*
X171867285Y-48931286D02*
X171831000Y-48895000D01*
X171758428Y-48858714D01*
X171649571Y-48858714D01*
X171577000Y-48895000D01*
X171540714Y-48967571D01*
X171540714Y-49366714D01*
X171214142Y-49330429D02*
X171141571Y-49366714D01*
X170996428Y-49366714D01*
X170923856Y-49330429D01*
X170887571Y-49257857D01*
X170887571Y-49221571D01*
X170923856Y-49149000D01*
X170996428Y-49112714D01*
X171105285Y-49112714D01*
X171177856Y-49076429D01*
X171214142Y-49003857D01*
X171214142Y-48967571D01*
X171177856Y-48895000D01*
X171105285Y-48858714D01*
X170996428Y-48858714D01*
X170923856Y-48895000D01*
X170560999Y-49366714D02*
X170560999Y-48858714D01*
X170560999Y-48604714D02*
X170597285Y-48641000D01*
X170560999Y-48677286D01*
X170524714Y-48641000D01*
X170560999Y-48604714D01*
X170560999Y-48677286D01*
X170089285Y-49366714D02*
X170161857Y-49330429D01*
X170198142Y-49294143D01*
X170234428Y-49221571D01*
X170234428Y-49003857D01*
X170198142Y-48931286D01*
X170161857Y-48895000D01*
X170089285Y-48858714D01*
X169980428Y-48858714D01*
X169907857Y-48895000D01*
X169871571Y-48931286D01*
X169835285Y-49003857D01*
X169835285Y-49221571D01*
X169871571Y-49294143D01*
X169907857Y-49330429D01*
X169980428Y-49366714D01*
X170089285Y-49366714D01*
X169508713Y-48858714D02*
X169508713Y-49366714D01*
X169508713Y-48931286D02*
X169472428Y-48895000D01*
X169399856Y-48858714D01*
X169290999Y-48858714D01*
X169218428Y-48895000D01*
X169182142Y-48967571D01*
X169182142Y-49366714D01*
X168274999Y-48677286D02*
X168238713Y-48641000D01*
X168166142Y-48604714D01*
X167984713Y-48604714D01*
X167912142Y-48641000D01*
X167875856Y-48677286D01*
X167839571Y-48749857D01*
X167839571Y-48822429D01*
X167875856Y-48931286D01*
X168311285Y-49366714D01*
X167839571Y-49366714D01*
X156482143Y-48840571D02*
X156228143Y-48840571D01*
X156119286Y-49239714D02*
X156482143Y-49239714D01*
X156482143Y-48477714D01*
X156119286Y-48477714D01*
X155865286Y-49239714D02*
X155466143Y-48731714D01*
X155865286Y-48731714D02*
X155466143Y-49239714D01*
X155284715Y-48731714D02*
X154994429Y-48731714D01*
X155175857Y-48477714D02*
X155175857Y-49130857D01*
X155139572Y-49203429D01*
X155067000Y-49239714D01*
X154994429Y-49239714D01*
X154450143Y-49203429D02*
X154522714Y-49239714D01*
X154667857Y-49239714D01*
X154740428Y-49203429D01*
X154776714Y-49130857D01*
X154776714Y-48840571D01*
X154740428Y-48768000D01*
X154667857Y-48731714D01*
X154522714Y-48731714D01*
X154450143Y-48768000D01*
X154413857Y-48840571D01*
X154413857Y-48913143D01*
X154776714Y-48985714D01*
X154087285Y-48731714D02*
X154087285Y-49239714D01*
X154087285Y-48804286D02*
X154051000Y-48768000D01*
X153978428Y-48731714D01*
X153869571Y-48731714D01*
X153797000Y-48768000D01*
X153760714Y-48840571D01*
X153760714Y-49239714D01*
X153434142Y-49203429D02*
X153361571Y-49239714D01*
X153216428Y-49239714D01*
X153143856Y-49203429D01*
X153107571Y-49130857D01*
X153107571Y-49094571D01*
X153143856Y-49022000D01*
X153216428Y-48985714D01*
X153325285Y-48985714D01*
X153397856Y-48949429D01*
X153434142Y-48876857D01*
X153434142Y-48840571D01*
X153397856Y-48768000D01*
X153325285Y-48731714D01*
X153216428Y-48731714D01*
X153143856Y-48768000D01*
X152780999Y-49239714D02*
X152780999Y-48731714D01*
X152780999Y-48477714D02*
X152817285Y-48514000D01*
X152780999Y-48550286D01*
X152744714Y-48514000D01*
X152780999Y-48477714D01*
X152780999Y-48550286D01*
X152309285Y-49239714D02*
X152381857Y-49203429D01*
X152418142Y-49167143D01*
X152454428Y-49094571D01*
X152454428Y-48876857D01*
X152418142Y-48804286D01*
X152381857Y-48768000D01*
X152309285Y-48731714D01*
X152200428Y-48731714D01*
X152127857Y-48768000D01*
X152091571Y-48804286D01*
X152055285Y-48876857D01*
X152055285Y-49094571D01*
X152091571Y-49167143D01*
X152127857Y-49203429D01*
X152200428Y-49239714D01*
X152309285Y-49239714D01*
X151728713Y-48731714D02*
X151728713Y-49239714D01*
X151728713Y-48804286D02*
X151692428Y-48768000D01*
X151619856Y-48731714D01*
X151510999Y-48731714D01*
X151438428Y-48768000D01*
X151402142Y-48840571D01*
X151402142Y-49239714D01*
X150059571Y-49239714D02*
X150494999Y-49239714D01*
X150277285Y-49239714D02*
X150277285Y-48477714D01*
X150349856Y-48586571D01*
X150422428Y-48659143D01*
X150494999Y-48695429D01*
X137758714Y-49239714D02*
X137758714Y-48477714D01*
X137468429Y-48477714D01*
X137395857Y-48514000D01*
X137359572Y-48550286D01*
X137323286Y-48622857D01*
X137323286Y-48731714D01*
X137359572Y-48804286D01*
X137395857Y-48840571D01*
X137468429Y-48876857D01*
X137758714Y-48876857D01*
X136887857Y-49239714D02*
X136960429Y-49203429D01*
X136996714Y-49167143D01*
X137033000Y-49094571D01*
X137033000Y-48876857D01*
X136996714Y-48804286D01*
X136960429Y-48768000D01*
X136887857Y-48731714D01*
X136779000Y-48731714D01*
X136706429Y-48768000D01*
X136670143Y-48804286D01*
X136633857Y-48876857D01*
X136633857Y-49094571D01*
X136670143Y-49167143D01*
X136706429Y-49203429D01*
X136779000Y-49239714D01*
X136887857Y-49239714D01*
X136379857Y-48731714D02*
X136234714Y-49239714D01*
X136089571Y-48876857D01*
X135944428Y-49239714D01*
X135799285Y-48731714D01*
X135218714Y-49203429D02*
X135291285Y-49239714D01*
X135436428Y-49239714D01*
X135508999Y-49203429D01*
X135545285Y-49130857D01*
X135545285Y-48840571D01*
X135508999Y-48768000D01*
X135436428Y-48731714D01*
X135291285Y-48731714D01*
X135218714Y-48768000D01*
X135182428Y-48840571D01*
X135182428Y-48913143D01*
X135545285Y-48985714D01*
X134855856Y-49239714D02*
X134855856Y-48731714D01*
X134855856Y-48876857D02*
X134819571Y-48804286D01*
X134783285Y-48768000D01*
X134710714Y-48731714D01*
X134638142Y-48731714D01*
X134384142Y-48840571D02*
X134130142Y-48840571D01*
X134021285Y-49239714D02*
X134384142Y-49239714D01*
X134384142Y-48477714D01*
X134021285Y-48477714D01*
X133767285Y-49239714D02*
X133368142Y-48731714D01*
X133767285Y-48731714D02*
X133368142Y-49239714D01*
X133186714Y-48731714D02*
X132896428Y-48731714D01*
X133077856Y-48477714D02*
X133077856Y-49130857D01*
X133041571Y-49203429D01*
X132968999Y-49239714D01*
X132896428Y-49239714D01*
X179632428Y-69572414D02*
X179886428Y-69209557D01*
X180067856Y-69572414D02*
X180067856Y-68810414D01*
X179777571Y-68810414D01*
X179704999Y-68846700D01*
X179668714Y-68882986D01*
X179632428Y-68955557D01*
X179632428Y-69064414D01*
X179668714Y-69136986D01*
X179704999Y-69173271D01*
X179777571Y-69209557D01*
X180067856Y-69209557D01*
X179051856Y-69173271D02*
X179305856Y-69173271D01*
X179305856Y-69572414D02*
X179305856Y-68810414D01*
X178942999Y-68810414D01*
X178652713Y-69572414D02*
X178652713Y-68810414D01*
X178398713Y-69354700D01*
X178144713Y-68810414D01*
X178144713Y-69572414D01*
X177455285Y-68810414D02*
X177600428Y-68810414D01*
X177672999Y-68846700D01*
X177709285Y-68882986D01*
X177781856Y-68991843D01*
X177818142Y-69136986D01*
X177818142Y-69427271D01*
X177781856Y-69499843D01*
X177745571Y-69536129D01*
X177672999Y-69572414D01*
X177527856Y-69572414D01*
X177455285Y-69536129D01*
X177418999Y-69499843D01*
X177382714Y-69427271D01*
X177382714Y-69245843D01*
X177418999Y-69173271D01*
X177455285Y-69136986D01*
X177527856Y-69100700D01*
X177672999Y-69100700D01*
X177745571Y-69136986D01*
X177781856Y-69173271D01*
X177818142Y-69245843D01*
X177019857Y-69572414D02*
X176874714Y-69572414D01*
X176802142Y-69536129D01*
X176765857Y-69499843D01*
X176693285Y-69390986D01*
X176657000Y-69245843D01*
X176657000Y-68955557D01*
X176693285Y-68882986D01*
X176729571Y-68846700D01*
X176802142Y-68810414D01*
X176947285Y-68810414D01*
X177019857Y-68846700D01*
X177056142Y-68882986D01*
X177092428Y-68955557D01*
X177092428Y-69136986D01*
X177056142Y-69209557D01*
X177019857Y-69245843D01*
X176947285Y-69282129D01*
X176802142Y-69282129D01*
X176729571Y-69245843D01*
X176693285Y-69209557D01*
X176657000Y-69136986D01*
X176330428Y-69572414D02*
X176330428Y-68810414D01*
X176330428Y-69173271D02*
X175895000Y-69173271D01*
X175895000Y-69572414D02*
X175895000Y-68810414D01*
X175604714Y-68810414D02*
X175423285Y-69572414D01*
X175278142Y-69028129D01*
X175133000Y-69572414D01*
X174951571Y-68810414D01*
X179759428Y-70067714D02*
X179577999Y-70829714D01*
X179432856Y-70285429D01*
X179287714Y-70829714D01*
X179106285Y-70067714D01*
X178815999Y-70829714D02*
X178815999Y-70321714D01*
X178815999Y-70067714D02*
X178852285Y-70104000D01*
X178815999Y-70140286D01*
X178779714Y-70104000D01*
X178815999Y-70067714D01*
X178815999Y-70140286D01*
X178453142Y-70829714D02*
X178453142Y-70321714D01*
X178453142Y-70466857D02*
X178416857Y-70394286D01*
X178380571Y-70358000D01*
X178308000Y-70321714D01*
X178235428Y-70321714D01*
X177691143Y-70793429D02*
X177763714Y-70829714D01*
X177908857Y-70829714D01*
X177981428Y-70793429D01*
X178017714Y-70720857D01*
X178017714Y-70430571D01*
X177981428Y-70358000D01*
X177908857Y-70321714D01*
X177763714Y-70321714D01*
X177691143Y-70358000D01*
X177654857Y-70430571D01*
X177654857Y-70503143D01*
X178017714Y-70575714D01*
X177219428Y-70829714D02*
X177292000Y-70793429D01*
X177328285Y-70720857D01*
X177328285Y-70067714D01*
X176638857Y-70793429D02*
X176711428Y-70829714D01*
X176856571Y-70829714D01*
X176929142Y-70793429D01*
X176965428Y-70720857D01*
X176965428Y-70430571D01*
X176929142Y-70358000D01*
X176856571Y-70321714D01*
X176711428Y-70321714D01*
X176638857Y-70358000D01*
X176602571Y-70430571D01*
X176602571Y-70503143D01*
X176965428Y-70575714D01*
X176312285Y-70793429D02*
X176239714Y-70829714D01*
X176094571Y-70829714D01*
X176021999Y-70793429D01*
X175985714Y-70720857D01*
X175985714Y-70684571D01*
X176021999Y-70612000D01*
X176094571Y-70575714D01*
X176203428Y-70575714D01*
X176275999Y-70539429D01*
X176312285Y-70466857D01*
X176312285Y-70430571D01*
X176275999Y-70358000D01*
X176203428Y-70321714D01*
X176094571Y-70321714D01*
X176021999Y-70358000D01*
X175695428Y-70793429D02*
X175622857Y-70829714D01*
X175477714Y-70829714D01*
X175405142Y-70793429D01*
X175368857Y-70720857D01*
X175368857Y-70684571D01*
X175405142Y-70612000D01*
X175477714Y-70575714D01*
X175586571Y-70575714D01*
X175659142Y-70539429D01*
X175695428Y-70466857D01*
X175695428Y-70430571D01*
X175659142Y-70358000D01*
X175586571Y-70321714D01*
X175477714Y-70321714D01*
X175405142Y-70358000D01*
X179360286Y-72087014D02*
X179360286Y-71325014D01*
X179106286Y-71869300D01*
X178852286Y-71325014D01*
X178852286Y-72087014D01*
X178380572Y-72087014D02*
X178453144Y-72050729D01*
X178489429Y-72014443D01*
X178525715Y-71941871D01*
X178525715Y-71724157D01*
X178489429Y-71651586D01*
X178453144Y-71615300D01*
X178380572Y-71579014D01*
X178271715Y-71579014D01*
X178199144Y-71615300D01*
X178162858Y-71651586D01*
X178126572Y-71724157D01*
X178126572Y-71941871D01*
X178162858Y-72014443D01*
X178199144Y-72050729D01*
X178271715Y-72087014D01*
X178380572Y-72087014D01*
X177473429Y-72087014D02*
X177473429Y-71325014D01*
X177473429Y-72050729D02*
X177546000Y-72087014D01*
X177691143Y-72087014D01*
X177763715Y-72050729D01*
X177800000Y-72014443D01*
X177836286Y-71941871D01*
X177836286Y-71724157D01*
X177800000Y-71651586D01*
X177763715Y-71615300D01*
X177691143Y-71579014D01*
X177546000Y-71579014D01*
X177473429Y-71615300D01*
X176784000Y-71579014D02*
X176784000Y-72087014D01*
X177110571Y-71579014D02*
X177110571Y-71978157D01*
X177074286Y-72050729D01*
X177001714Y-72087014D01*
X176892857Y-72087014D01*
X176820286Y-72050729D01*
X176784000Y-72014443D01*
X176312285Y-72087014D02*
X176384857Y-72050729D01*
X176421142Y-71978157D01*
X176421142Y-71325014D01*
X175731714Y-72050729D02*
X175804285Y-72087014D01*
X175949428Y-72087014D01*
X176021999Y-72050729D01*
X176058285Y-71978157D01*
X176058285Y-71687871D01*
X176021999Y-71615300D01*
X175949428Y-71579014D01*
X175804285Y-71579014D01*
X175731714Y-71615300D01*
X175695428Y-71687871D01*
X175695428Y-71760443D01*
X176058285Y-71833014D01*
X150627443Y-68012129D02*
X150627443Y-66488129D01*
X150264586Y-66488129D01*
X150046871Y-66560700D01*
X149901729Y-66705843D01*
X149829157Y-66850986D01*
X149756586Y-67141271D01*
X149756586Y-67358986D01*
X149829157Y-67649271D01*
X149901729Y-67794414D01*
X150046871Y-67939557D01*
X150264586Y-68012129D01*
X150627443Y-68012129D01*
X148450300Y-66996129D02*
X148450300Y-68012129D01*
X149103443Y-66996129D02*
X149103443Y-67794414D01*
X149030871Y-67939557D01*
X148885729Y-68012129D01*
X148668014Y-68012129D01*
X148522871Y-67939557D01*
X148450300Y-67866986D01*
X147797157Y-67939557D02*
X147652014Y-68012129D01*
X147361729Y-68012129D01*
X147216586Y-67939557D01*
X147144014Y-67794414D01*
X147144014Y-67721843D01*
X147216586Y-67576700D01*
X147361729Y-67504129D01*
X147579443Y-67504129D01*
X147724586Y-67431557D01*
X147797157Y-67286414D01*
X147797157Y-67213843D01*
X147724586Y-67068700D01*
X147579443Y-66996129D01*
X147361729Y-66996129D01*
X147216586Y-67068700D01*
X146708586Y-66996129D02*
X146128015Y-66996129D01*
X146490872Y-66488129D02*
X146490872Y-67794414D01*
X146418300Y-67939557D01*
X146273158Y-68012129D01*
X146128015Y-68012129D01*
X145620015Y-68012129D02*
X145620015Y-66996129D01*
X145620015Y-66488129D02*
X145692586Y-66560700D01*
X145620015Y-66633271D01*
X145547443Y-66560700D01*
X145620015Y-66488129D01*
X145620015Y-66633271D01*
X144894301Y-66996129D02*
X144894301Y-68012129D01*
X144894301Y-67141271D02*
X144821729Y-67068700D01*
X144676587Y-66996129D01*
X144458872Y-66996129D01*
X144313729Y-67068700D01*
X144241158Y-67213843D01*
X144241158Y-68012129D01*
X141483444Y-68012129D02*
X141991444Y-67286414D01*
X142354301Y-68012129D02*
X142354301Y-66488129D01*
X141773729Y-66488129D01*
X141628587Y-66560700D01*
X141556015Y-66633271D01*
X141483444Y-66778414D01*
X141483444Y-66996129D01*
X141556015Y-67141271D01*
X141628587Y-67213843D01*
X141773729Y-67286414D01*
X142354301Y-67286414D01*
X140249729Y-67939557D02*
X140394872Y-68012129D01*
X140685158Y-68012129D01*
X140830301Y-67939557D01*
X140902872Y-67794414D01*
X140902872Y-67213843D01*
X140830301Y-67068700D01*
X140685158Y-66996129D01*
X140394872Y-66996129D01*
X140249729Y-67068700D01*
X140177158Y-67213843D01*
X140177158Y-67358986D01*
X140902872Y-67504129D01*
X139669158Y-66996129D02*
X139306301Y-68012129D01*
X138943443Y-66996129D02*
X139306301Y-68012129D01*
X139451443Y-68374986D01*
X139524015Y-68447557D01*
X139669158Y-68520129D01*
X138362872Y-66996129D02*
X138362872Y-68012129D01*
X138362872Y-67141271D02*
X138290300Y-67068700D01*
X138145158Y-66996129D01*
X137927443Y-66996129D01*
X137782300Y-67068700D01*
X137709729Y-67213843D01*
X137709729Y-68012129D01*
X136766301Y-68012129D02*
X136911443Y-67939557D01*
X136984015Y-67866986D01*
X137056586Y-67721843D01*
X137056586Y-67286414D01*
X136984015Y-67141271D01*
X136911443Y-67068700D01*
X136766301Y-66996129D01*
X136548586Y-66996129D01*
X136403443Y-67068700D01*
X136330872Y-67141271D01*
X136258301Y-67286414D01*
X136258301Y-67721843D01*
X136330872Y-67866986D01*
X136403443Y-67939557D01*
X136548586Y-68012129D01*
X136766301Y-68012129D01*
X135387444Y-68012129D02*
X135532586Y-67939557D01*
X135605158Y-67794414D01*
X135605158Y-66488129D01*
X134153729Y-68012129D02*
X134153729Y-66488129D01*
X134153729Y-67939557D02*
X134298872Y-68012129D01*
X134589158Y-68012129D01*
X134734300Y-67939557D01*
X134806872Y-67866986D01*
X134879443Y-67721843D01*
X134879443Y-67286414D01*
X134806872Y-67141271D01*
X134734300Y-67068700D01*
X134589158Y-66996129D01*
X134298872Y-66996129D01*
X134153729Y-67068700D01*
X133500586Y-67939557D02*
X133355443Y-68012129D01*
X133065158Y-68012129D01*
X132920015Y-67939557D01*
X132847443Y-67794414D01*
X132847443Y-67721843D01*
X132920015Y-67576700D01*
X133065158Y-67504129D01*
X133282872Y-67504129D01*
X133428015Y-67431557D01*
X133500586Y-67286414D01*
X133500586Y-67213843D01*
X133428015Y-67068700D01*
X133282872Y-66996129D01*
X133065158Y-66996129D01*
X132920015Y-67068700D01*
X150700014Y-70263657D02*
X150482300Y-70336229D01*
X150119443Y-70336229D01*
X149974300Y-70263657D01*
X149901729Y-70191086D01*
X149829157Y-70045943D01*
X149829157Y-69900800D01*
X149901729Y-69755657D01*
X149974300Y-69683086D01*
X150119443Y-69610514D01*
X150409729Y-69537943D01*
X150554871Y-69465371D01*
X150627443Y-69392800D01*
X150700014Y-69247657D01*
X150700014Y-69102514D01*
X150627443Y-68957371D01*
X150554871Y-68884800D01*
X150409729Y-68812229D01*
X150046871Y-68812229D01*
X149829157Y-68884800D01*
X149393728Y-68812229D02*
X148522871Y-68812229D01*
X148958300Y-70336229D02*
X148958300Y-68812229D01*
X148014871Y-70336229D02*
X148014871Y-68812229D01*
X147506871Y-69900800D01*
X146998871Y-68812229D01*
X146998871Y-70336229D01*
X146418300Y-68812229D02*
X145474871Y-68812229D01*
X145982871Y-69392800D01*
X145765157Y-69392800D01*
X145620014Y-69465371D01*
X145547443Y-69537943D01*
X145474871Y-69683086D01*
X145474871Y-70045943D01*
X145547443Y-70191086D01*
X145620014Y-70263657D01*
X145765157Y-70336229D01*
X146200585Y-70336229D01*
X146345728Y-70263657D01*
X146418300Y-70191086D01*
X144894299Y-68957371D02*
X144821728Y-68884800D01*
X144676585Y-68812229D01*
X144313728Y-68812229D01*
X144168585Y-68884800D01*
X144096014Y-68957371D01*
X144023442Y-69102514D01*
X144023442Y-69247657D01*
X144096014Y-69465371D01*
X144966871Y-70336229D01*
X144023442Y-70336229D01*
X142281727Y-70263657D02*
X142064013Y-70336229D01*
X141701156Y-70336229D01*
X141556013Y-70263657D01*
X141483442Y-70191086D01*
X141410870Y-70045943D01*
X141410870Y-69900800D01*
X141483442Y-69755657D01*
X141556013Y-69683086D01*
X141701156Y-69610514D01*
X141991442Y-69537943D01*
X142136584Y-69465371D01*
X142209156Y-69392800D01*
X142281727Y-69247657D01*
X142281727Y-69102514D01*
X142209156Y-68957371D01*
X142136584Y-68884800D01*
X141991442Y-68812229D01*
X141628584Y-68812229D01*
X141410870Y-68884800D01*
X140177155Y-70263657D02*
X140322298Y-70336229D01*
X140612584Y-70336229D01*
X140757727Y-70263657D01*
X140830298Y-70118514D01*
X140830298Y-69537943D01*
X140757727Y-69392800D01*
X140612584Y-69320229D01*
X140322298Y-69320229D01*
X140177155Y-69392800D01*
X140104584Y-69537943D01*
X140104584Y-69683086D01*
X140830298Y-69828229D01*
X139451441Y-69320229D02*
X139451441Y-70336229D01*
X139451441Y-69465371D02*
X139378869Y-69392800D01*
X139233727Y-69320229D01*
X139016012Y-69320229D01*
X138870869Y-69392800D01*
X138798298Y-69537943D01*
X138798298Y-70336229D01*
X138145155Y-70263657D02*
X138000012Y-70336229D01*
X137709727Y-70336229D01*
X137564584Y-70263657D01*
X137492012Y-70118514D01*
X137492012Y-70045943D01*
X137564584Y-69900800D01*
X137709727Y-69828229D01*
X137927441Y-69828229D01*
X138072584Y-69755657D01*
X138145155Y-69610514D01*
X138145155Y-69537943D01*
X138072584Y-69392800D01*
X137927441Y-69320229D01*
X137709727Y-69320229D01*
X137564584Y-69392800D01*
X136621156Y-70336229D02*
X136766298Y-70263657D01*
X136838870Y-70191086D01*
X136911441Y-70045943D01*
X136911441Y-69610514D01*
X136838870Y-69465371D01*
X136766298Y-69392800D01*
X136621156Y-69320229D01*
X136403441Y-69320229D01*
X136258298Y-69392800D01*
X136185727Y-69465371D01*
X136113156Y-69610514D01*
X136113156Y-70045943D01*
X136185727Y-70191086D01*
X136258298Y-70263657D01*
X136403441Y-70336229D01*
X136621156Y-70336229D01*
X135460013Y-70336229D02*
X135460013Y-69320229D01*
X135460013Y-69610514D02*
X135387441Y-69465371D01*
X135314870Y-69392800D01*
X135169727Y-69320229D01*
X135024584Y-69320229D01*
X133428012Y-70263657D02*
X133210298Y-70336229D01*
X132847441Y-70336229D01*
X132702298Y-70263657D01*
X132629727Y-70191086D01*
X132557155Y-70045943D01*
X132557155Y-69900800D01*
X132629727Y-69755657D01*
X132702298Y-69683086D01*
X132847441Y-69610514D01*
X133137727Y-69537943D01*
X133282869Y-69465371D01*
X133355441Y-69392800D01*
X133428012Y-69247657D01*
X133428012Y-69102514D01*
X133355441Y-68957371D01*
X133282869Y-68884800D01*
X133137727Y-68812229D01*
X132774869Y-68812229D01*
X132557155Y-68884800D01*
X131904012Y-70336229D02*
X131904012Y-68812229D01*
X131250869Y-70336229D02*
X131250869Y-69537943D01*
X131323440Y-69392800D01*
X131468583Y-69320229D01*
X131686298Y-69320229D01*
X131831440Y-69392800D01*
X131904012Y-69465371D01*
X130525155Y-70336229D02*
X130525155Y-69320229D01*
X130525155Y-68812229D02*
X130597726Y-68884800D01*
X130525155Y-68957371D01*
X130452583Y-68884800D01*
X130525155Y-68812229D01*
X130525155Y-68957371D01*
X129218869Y-70263657D02*
X129364012Y-70336229D01*
X129654298Y-70336229D01*
X129799441Y-70263657D01*
X129872012Y-70118514D01*
X129872012Y-69537943D01*
X129799441Y-69392800D01*
X129654298Y-69320229D01*
X129364012Y-69320229D01*
X129218869Y-69392800D01*
X129146298Y-69537943D01*
X129146298Y-69683086D01*
X129872012Y-69828229D01*
X128275441Y-70336229D02*
X128420583Y-70263657D01*
X128493155Y-70118514D01*
X128493155Y-68812229D01*
X127041726Y-70336229D02*
X127041726Y-68812229D01*
X127041726Y-70263657D02*
X127186869Y-70336229D01*
X127477155Y-70336229D01*
X127622297Y-70263657D01*
X127694869Y-70191086D01*
X127767440Y-70045943D01*
X127767440Y-69610514D01*
X127694869Y-69465371D01*
X127622297Y-69392800D01*
X127477155Y-69320229D01*
X127186869Y-69320229D01*
X127041726Y-69392800D01*
X150627443Y-72660329D02*
X150627443Y-71136329D01*
X149756586Y-72660329D01*
X149756586Y-71136329D01*
X148377729Y-71644329D02*
X148377729Y-72660329D01*
X149030872Y-71644329D02*
X149030872Y-72442614D01*
X148958300Y-72587757D01*
X148813158Y-72660329D01*
X148595443Y-72660329D01*
X148450300Y-72587757D01*
X148377729Y-72515186D01*
X146998872Y-72587757D02*
X147144015Y-72660329D01*
X147434301Y-72660329D01*
X147579443Y-72587757D01*
X147652015Y-72515186D01*
X147724586Y-72370043D01*
X147724586Y-71934614D01*
X147652015Y-71789471D01*
X147579443Y-71716900D01*
X147434301Y-71644329D01*
X147144015Y-71644329D01*
X146998872Y-71716900D01*
X146128015Y-72660329D02*
X146273157Y-72587757D01*
X146345729Y-72442614D01*
X146345729Y-71136329D01*
X144966871Y-72587757D02*
X145112014Y-72660329D01*
X145402300Y-72660329D01*
X145547443Y-72587757D01*
X145620014Y-72442614D01*
X145620014Y-71862043D01*
X145547443Y-71716900D01*
X145402300Y-71644329D01*
X145112014Y-71644329D01*
X144966871Y-71716900D01*
X144894300Y-71862043D01*
X144894300Y-72007186D01*
X145620014Y-72152329D01*
X144023443Y-72660329D02*
X144168585Y-72587757D01*
X144241157Y-72515186D01*
X144313728Y-72370043D01*
X144313728Y-71934614D01*
X144241157Y-71789471D01*
X144168585Y-71716900D01*
X144023443Y-71644329D01*
X143805728Y-71644329D01*
X143660585Y-71716900D01*
X143588014Y-71789471D01*
X143515443Y-71934614D01*
X143515443Y-72370043D01*
X143588014Y-72515186D01*
X143660585Y-72587757D01*
X143805728Y-72660329D01*
X144023443Y-72660329D01*
X142862300Y-72079757D02*
X141701157Y-72079757D01*
X140249729Y-72660329D02*
X140975443Y-72660329D01*
X140975443Y-71136329D01*
X138943443Y-72660329D02*
X139814300Y-72660329D01*
X139378872Y-72660329D02*
X139378872Y-71136329D01*
X139524015Y-71354043D01*
X139669157Y-71499186D01*
X139814300Y-71571757D01*
X137564586Y-71136329D02*
X138290300Y-71136329D01*
X138362871Y-71862043D01*
X138290300Y-71789471D01*
X138145157Y-71716900D01*
X137782300Y-71716900D01*
X137637157Y-71789471D01*
X137564586Y-71862043D01*
X137492014Y-72007186D01*
X137492014Y-72370043D01*
X137564586Y-72515186D01*
X137637157Y-72587757D01*
X137782300Y-72660329D01*
X138145157Y-72660329D01*
X138290300Y-72587757D01*
X138362871Y-72515186D01*
X136911442Y-71281471D02*
X136838871Y-71208900D01*
X136693728Y-71136329D01*
X136330871Y-71136329D01*
X136185728Y-71208900D01*
X136113157Y-71281471D01*
X136040585Y-71426614D01*
X136040585Y-71571757D01*
X136113157Y-71789471D01*
X136984014Y-72660329D01*
X136040585Y-72660329D01*
X134516585Y-72660329D02*
X135024585Y-71934614D01*
X135387442Y-72660329D02*
X135387442Y-71136329D01*
X134806870Y-71136329D01*
X134661728Y-71208900D01*
X134589156Y-71281471D01*
X134516585Y-71426614D01*
X134516585Y-71644329D01*
X134589156Y-71789471D01*
X134661728Y-71862043D01*
X134806870Y-71934614D01*
X135387442Y-71934614D01*
X133863442Y-71862043D02*
X133355442Y-71862043D01*
X133137728Y-72660329D02*
X133863442Y-72660329D01*
X133863442Y-71136329D01*
X133137728Y-71136329D01*
D13*
X135159000Y-114138000D02*
X135859000Y-114138000D01*
X135859000Y-112938000D02*
X135159000Y-112938000D01*
X151476000Y-57373000D02*
X151476000Y-56673000D01*
X150276000Y-56673000D02*
X150276000Y-57373000D01*
X168890200Y-71999400D02*
X169590200Y-71999400D01*
X169590200Y-70799400D02*
X168890200Y-70799400D01*
X168915600Y-73752000D02*
X169615600Y-73752000D01*
X169615600Y-72552000D02*
X168915600Y-72552000D01*
X168208400Y-89210400D02*
X168208400Y-89910400D01*
X169408400Y-89910400D02*
X169408400Y-89210400D01*
X157638000Y-116017600D02*
X158338000Y-116017600D01*
X158338000Y-114817600D02*
X157638000Y-114817600D01*
X132399400Y-112285400D02*
X132399400Y-111285400D01*
X131049400Y-111285400D02*
X131049400Y-112285400D01*
X185405400Y-74734800D02*
X185405400Y-75734800D01*
X186755400Y-75734800D02*
X186755400Y-74734800D01*
X166530400Y-125211200D02*
X167530400Y-125211200D01*
X167530400Y-123861200D02*
X166530400Y-123861200D01*
X171026200Y-125185800D02*
X172026200Y-125185800D01*
X172026200Y-123835800D02*
X171026200Y-123835800D01*
X187031000Y-74734800D02*
X187031000Y-75734800D01*
X188381000Y-75734800D02*
X188381000Y-74734800D01*
X162806000Y-56678200D02*
X161806000Y-56678200D01*
X161806000Y-58028200D02*
X162806000Y-58028200D01*
X162806000Y-55052600D02*
X161806000Y-55052600D01*
X161806000Y-56402600D02*
X162806000Y-56402600D01*
X150535000Y-77970000D02*
X150535000Y-76970000D01*
X149185000Y-76970000D02*
X149185000Y-77970000D01*
X149265000Y-77970000D02*
X149265000Y-76970000D01*
X147915000Y-76970000D02*
X147915000Y-77970000D01*
X176725200Y-84796000D02*
X175725200Y-84796000D01*
X175725200Y-86146000D02*
X176725200Y-86146000D01*
X176725200Y-83449800D02*
X175725200Y-83449800D01*
X175725200Y-84799800D02*
X176725200Y-84799800D01*
X166886000Y-122214000D02*
X167886000Y-122214000D01*
X167886000Y-120864000D02*
X166886000Y-120864000D01*
X176725200Y-82103600D02*
X175725200Y-82103600D01*
X175725200Y-83453600D02*
X176725200Y-83453600D01*
X153805000Y-116626000D02*
X154805000Y-116626000D01*
X154805000Y-115276000D02*
X153805000Y-115276000D01*
X173397800Y-72629400D02*
X172397800Y-72629400D01*
X172397800Y-73979400D02*
X173397800Y-73979400D01*
X154490800Y-87974800D02*
X155490800Y-87974800D01*
X155490800Y-86624800D02*
X154490800Y-86624800D01*
X165676200Y-101534600D02*
X164676200Y-101534600D01*
X164676200Y-102884600D02*
X165676200Y-102884600D01*
X183488600Y-57432200D02*
X183488600Y-77132200D01*
X167488600Y-77132200D02*
X167488600Y-57432200D01*
X167488600Y-77132200D02*
X167488600Y-57432200D01*
X183488600Y-57432200D02*
X183488600Y-77132200D01*
X136463000Y-111506000D02*
X136463000Y-112702000D01*
X136463000Y-112702000D02*
X135063000Y-112702000D01*
X135063000Y-109802000D02*
X136463000Y-109802000D01*
X136463000Y-109802000D02*
X136463000Y-110998000D01*
X136590000Y-111506000D02*
X136463000Y-111506000D01*
X136463000Y-110998000D02*
X136590000Y-110998000D01*
X135063000Y-112702000D02*
X135063000Y-109802000D01*
X136590000Y-110998000D02*
X136590000Y-111506000D01*
X151790500Y-59537500D02*
X157073500Y-59537500D01*
X157073500Y-59537500D02*
X157073500Y-54254500D01*
X157073500Y-54254500D02*
X151790500Y-54254500D01*
X151790500Y-54254500D02*
X151790500Y-59537500D01*
X151892000Y-57658000D02*
X152400000Y-57658000D01*
X152400000Y-57658000D02*
X152400000Y-56388000D01*
X152400000Y-56388000D02*
X151892000Y-56388000D01*
X133056000Y-106942000D02*
X133056000Y-107942000D01*
X134406000Y-107942000D02*
X134406000Y-106942000D01*
M02*
