M48
;DRILL file {kicad (2015-03-26 BZR 5542)-product} date 4/10/2015 4:12:46 PM
;FORMAT={-:-/ absolute / inch / decimal}
FMAT,2
INCH,TZ
T1C0.015
T2C0.039
T3C0.040
T4C0.062
T5C0.118
T6C0.118
%
G90
G05
M72
T1
X4.862Y-3.7
X4.875Y-2.776
X4.904Y-2.341
X4.95Y-2.357
X4.953Y-4.5
X4.978Y-2.383
X5.057Y-2.734
X5.069Y-4.526
X5.08Y-3.55
X5.08Y-3.66
X5.184Y-4.851
X5.195Y-2.457
X5.197Y-2.707
X5.203Y-2.298
X5.236Y-3.694
X5.24Y-2.886
X5.247Y-2.385
X5.247Y-2.457
X5.29Y-2.357
X5.295Y-2.454
X5.343Y-2.33
X5.346Y-2.45
X5.346Y-4.286
X5.393Y-2.705
X5.416Y-3.519
X5.418Y-4.498
X5.42Y-3.605
X5.444Y-2.706
X5.444Y-4.468
X5.497Y-2.706
X5.506Y-3.252
X5.52Y-3.759
X5.521Y-4.851
X5.589Y-4.624
X5.604Y-3.504
X5.605Y-4.492
X5.624Y-3.759
X5.642Y-3.564
X5.653Y-2.858
X5.683Y-4.213
X5.696Y-3.508
X5.697Y-3.3
X5.704Y-3.351
X5.706Y-3.754
X5.733Y-4.514
X5.738Y-4.213
X5.74Y-4.005
X5.764Y-3.594
X5.764Y-4.319
X5.774Y-4.691
X5.789Y-4.8
X5.796Y-3.567
X5.798Y-4.083
X5.805Y-2.245
X5.82Y-4.839
X5.822Y-3.538
X5.825Y-3.402
X5.825Y-3.758
X5.85Y-2.705
X5.856Y-4.664
X5.874Y-2.404
X5.883Y-3.562
X5.887Y-3.757
X5.9Y-2.332
X5.906Y-2.816
X5.925Y-3.635
X5.927Y-2.429
X5.936Y-2.357
X5.947Y-2.913
X5.953Y-2.7
X5.955Y-4.55
X5.988Y-2.455
X6.003Y-3.609
X6.01Y-3.371
X6.01Y-4.314
X6.045Y-2.735
X6.05Y-2.16
X6.062Y-2.206
X6.107Y-2.7
X6.108Y-2.887
X6.154Y-2.916
X6.156Y-2.456
X6.17Y-3.201
X6.17Y-4.59
X6.18Y-4.72
X6.185Y-3.139
X6.197Y-3.254
X6.2Y-2.09
X6.2Y-2.403
X6.241Y-3.489
X6.263Y-2.392
X6.269Y-2.741
X6.269Y-2.828
X6.301Y-1.991
X6.315Y-4.394
X6.319Y-4.63
X6.323Y-2.67
X6.333Y-4.32
X6.338Y-4.373
X6.357Y-2.348
X6.37Y-4.4
X6.4Y-3.743
X6.401Y-3.592
X6.432Y-2.722
X6.433Y-3.908
X6.456Y-4.581
X6.457Y-3.887
X6.471Y-2.674
X6.477Y-2.15
X6.484Y-3.86
X6.485Y-3.496
X6.488Y-4.622
X6.513Y-3.835
X6.514Y-3.771
X6.522Y-3.732
X6.529Y-2.408
X6.534Y-2.007
X6.535Y-3.232
X6.548Y-3.781
X6.549Y-4.596
X6.551Y-2.353
X6.558Y-1.982
X6.572Y-3.219
X6.58Y-4.948
X6.581Y-4.347
X6.585Y-3.55
X6.587Y-4.13
X6.605Y-3.914
X6.613Y-4.369
X6.632Y-3.887
X6.635Y-2.935
X6.638Y-4.347
X6.65Y-3.72
X6.657Y-3.86
X6.658Y-4.295
X6.665Y-4.975
X6.683Y-3.835
X6.686Y-4.273
X6.701Y-4.785
X6.709Y-3.809
X6.71Y-3.549
X6.714Y-2.381
X6.715Y-4.219
X6.716Y-2.46
X6.735Y-4.84
X6.738Y-2.737
X6.74Y-2.83
X6.743Y-4.191
X6.755Y-4.948
X6.769Y-4.247
X6.773Y-3.965
X6.773Y-4.167
X6.774Y-3.522
X6.792Y-2.408
X6.805Y-3.72
X6.805Y-3.94
X6.808Y-2.765
X6.818Y-2.7
X6.818Y-3.618
X6.826Y-4.849
X6.837Y-3.358
X6.842Y-3.247
X6.844Y-3.301
X6.858Y-2.835
X6.858Y-4.246
X6.861Y-4.759
X6.866Y-3.547
X6.867Y-2.005
X6.874Y-5.027
X6.887Y-4.541
X6.893Y-5.001
X6.896Y-3.456
X6.899Y-3.548
X6.906Y-4.138
X6.912Y-4.563
X6.913Y-4.974
X6.92Y-2.885
X6.938Y-4.589
X6.94Y-4.797
X6.949Y-1.98
X6.962Y-3.481
X6.964Y-4.612
X6.965Y-4.771
X6.99Y-4.823
X6.991Y-4.586
X7.032Y-3.369
X7.039Y-3.326
X7.04Y-4.549
X7.04Y-4.7
X7.066Y-2.644
X7.095Y-3.339
X7.095Y-3.445
X7.095Y-3.72
X7.098Y-4.192
X7.118Y-4.1
X7.133Y-3.895
X7.135Y-3.548
X7.136Y-3.432
X7.158Y-2.806
X7.159Y-4.376
X7.164Y-2.473
X7.165Y-3.217
X7.168Y-4.708
X7.169Y-3.897
X7.18Y-2.905
X7.198Y-3.145
X7.198Y-4.975
X7.219Y-4.898
X7.222Y-3.684
X7.225Y-3.503
X7.254Y-2.941
X7.264Y-3.501
X7.265Y-2.79
X7.35Y-3.7
X7.39Y-2.82
T2
X5.9999Y-4.7999
X5.9999Y-4.9771
X6.2559Y-4.7999
X6.2559Y-4.9771
T3
X4.9Y-2.05
X4.9Y-2.15
X4.9Y-3.15
X4.9Y-3.25
X4.9Y-3.35
X4.9Y-3.45
X4.9Y-3.55
X4.9Y-3.65
X4.9Y-3.75
X4.9Y-3.85
X4.9Y-3.95
X4.9Y-4.05
X4.9Y-4.15
X4.9Y-4.25
X4.9Y-4.35
X4.9Y-4.45
X4.9Y-4.55
X4.9Y-4.65
X4.9Y-4.75
X4.9Y-4.85
X4.9Y-4.95
X5.Y-3.15
X5.Y-3.25
X5.Y-3.35
X5.Y-3.45
X5.Y-3.55
X5.Y-3.65
X5.Y-3.75
X5.Y-3.85
X5.Y-3.95
X5.Y-4.05
X5.Y-4.15
X5.Y-4.25
X5.Y-4.35
X5.Y-4.45
X5.Y-4.55
X5.Y-4.65
X5.Y-4.75
X5.Y-4.85
X5.Y-4.95
X5.15Y-3.35
X5.15Y-3.45
X5.15Y-3.85
X5.15Y-4.15
X5.15Y-4.25
X5.15Y-4.6
X5.15Y-4.75
X5.15Y-4.95
X5.25Y-3.85
X5.25Y-4.6
X5.25Y-4.75
X5.25Y-4.95
X5.35Y-3.85
X5.35Y-4.6
X5.35Y-4.75
X5.35Y-4.95
X5.45Y-3.85
X5.55Y-3.85
X5.65Y-3.85
X5.65Y-4.7
X5.65Y-4.8
X5.65Y-4.95
X5.75Y-4.95
X5.85Y-4.95
X5.95Y-4.45
X6.Y-3.
X6.Y-3.1
X6.Y-3.2
X6.Y-3.3
X6.05Y-3.7
X6.05Y-4.
X6.05Y-4.45
X6.1Y-3.
X6.1Y-3.1
X6.1Y-3.2
X6.1Y-3.3
X6.1Y-4.15
X6.1Y-4.25
X6.15Y-3.55
X6.15Y-3.7
X6.15Y-3.85
X6.15Y-4.
X6.15Y-4.45
X6.2Y-4.15
X6.2Y-4.25
X6.25Y-3.
X6.25Y-3.3
X6.25Y-3.4
X6.25Y-3.55
X6.25Y-3.7
X6.25Y-3.85
X6.25Y-4.
X6.25Y-4.45
X6.3Y-4.15
X6.3Y-4.25
X6.35Y-3.
X6.35Y-3.3
X6.35Y-3.4
X6.35Y-3.55
X6.35Y-3.7
X6.35Y-3.85
X6.35Y-4.
X6.4Y-4.15
X6.4Y-4.25
X6.45Y-3.
X6.45Y-3.3
X6.45Y-3.4
X6.45Y-4.45
X6.55Y-3.3
X6.55Y-3.4
X6.55Y-4.45
X6.55Y-4.7
X6.65Y-3.3
X6.65Y-3.4
X6.65Y-4.7
X6.75Y-3.3
X6.75Y-3.4
X6.75Y-4.45
X6.75Y-4.7
X6.85Y-4.45
X7.Y-4.45
X7.1Y-4.45
X7.165Y-1.985
X7.3Y-3.15
X7.3Y-3.25
X7.3Y-3.35
X7.3Y-3.45
X7.3Y-3.55
X7.3Y-3.65
X7.3Y-3.75
X7.3Y-3.85
X7.3Y-3.95
X7.3Y-4.05
X7.3Y-4.15
X7.3Y-4.25
X7.3Y-4.35
X7.3Y-4.45
X7.3Y-4.55
X7.3Y-4.65
X7.3Y-4.75
X7.3Y-4.85
X7.3Y-4.95
X7.4Y-2.05
X7.4Y-2.15
X7.4Y-3.15
X7.4Y-3.25
X7.4Y-3.35
X7.4Y-3.45
X7.4Y-3.55
X7.4Y-3.65
X7.4Y-3.75
X7.4Y-3.85
X7.4Y-3.95
X7.4Y-4.05
X7.4Y-4.15
X7.4Y-4.25
X7.4Y-4.35
X7.4Y-4.45
X7.4Y-4.55
X7.4Y-4.65
X7.4Y-4.75
X7.4Y-4.85
X7.4Y-4.95
T4
X5.0161Y-2.09
X5.6239Y-2.09
X5.7261Y-2.09
X6.3339Y-2.09
X6.4361Y-2.09
X7.0439Y-2.09
T5
X5.468Y-4.214
X6.394Y-4.852
X7.37Y-2.354
T6
X7.109Y-4.885
T0
M30
