G04 #@! TF.FileFunction,Soldermask,Bot*
%FSLAX46Y46*%
G04 Gerber Fmt 4.6, Leading zero omitted, Abs format (unit mm)*
G04 Created by KiCad (PCBNEW (2015-03-26 BZR 5542)-product) date 4/10/2015 4:12:41 PM*
%MOMM*%
G01*
G04 APERTURE LIST*
%ADD10C,0.100000*%
%ADD11R,1.727200X1.727200*%
%ADD12O,1.727200X1.727200*%
%ADD13R,1.200000X0.750000*%
%ADD14R,0.750000X0.800000*%
%ADD15R,0.800000X0.750000*%
%ADD16R,1.016000X1.016000*%
%ADD17R,0.203200X0.508000*%
%ADD18R,0.508000X0.203200*%
%ADD19R,2.032000X2.032000*%
%ADD20O,2.032000X2.032000*%
%ADD21R,2.032000X1.727200*%
%ADD22O,2.032000X1.727200*%
%ADD23R,1.727200X2.032000*%
%ADD24O,1.727200X2.032000*%
%ADD25R,0.900000X1.200000*%
%ADD26R,1.200000X0.900000*%
%ADD27R,1.200000X4.000000*%
%ADD28R,2.235200X2.235200*%
%ADD29C,2.000000*%
%ADD30C,1.250000*%
%ADD31C,5.461000*%
%ADD32R,1.500000X1.000000*%
%ADD33R,2.050000X2.900000*%
%ADD34R,0.508000X1.143000*%
G04 APERTURE END LIST*
D10*
D11*
X124460000Y-80010000D03*
D12*
X127000000Y-80010000D03*
X124460000Y-82550000D03*
X127000000Y-82550000D03*
X124460000Y-85090000D03*
X127000000Y-85090000D03*
X124460000Y-87630000D03*
X127000000Y-87630000D03*
X124460000Y-90170000D03*
X127000000Y-90170000D03*
X124460000Y-92710000D03*
X127000000Y-92710000D03*
X124460000Y-95250000D03*
X127000000Y-95250000D03*
X124460000Y-97790000D03*
X127000000Y-97790000D03*
X124460000Y-100330000D03*
X127000000Y-100330000D03*
X124460000Y-102870000D03*
X127000000Y-102870000D03*
X124460000Y-105410000D03*
X127000000Y-105410000D03*
X124460000Y-107950000D03*
X127000000Y-107950000D03*
X124460000Y-110490000D03*
X127000000Y-110490000D03*
X124460000Y-113030000D03*
X127000000Y-113030000D03*
X124460000Y-115570000D03*
X127000000Y-115570000D03*
X124460000Y-118110000D03*
X127000000Y-118110000D03*
X124460000Y-120650000D03*
X127000000Y-120650000D03*
X124460000Y-123190000D03*
X127000000Y-123190000D03*
X124460000Y-125730000D03*
X127000000Y-125730000D03*
D13*
X134559000Y-113538000D03*
X136459000Y-113538000D03*
D14*
X150876000Y-57773000D03*
X150876000Y-56273000D03*
D15*
X168490200Y-71399400D03*
X169990200Y-71399400D03*
X168515600Y-73152000D03*
X170015600Y-73152000D03*
D14*
X168808400Y-88810400D03*
X168808400Y-90310400D03*
D15*
X157238000Y-115417600D03*
X158738000Y-115417600D03*
D16*
X184429400Y-77343000D03*
X184429400Y-76073000D03*
D17*
X184429400Y-76708000D03*
D16*
X141986000Y-86588600D03*
X141986000Y-87858600D03*
D17*
X141986000Y-87223600D03*
D16*
X146710400Y-86563200D03*
X146710400Y-87833200D03*
D17*
X146710400Y-87198200D03*
D16*
X152527000Y-50546000D03*
X152527000Y-51816000D03*
D17*
X152527000Y-51181000D03*
D16*
X153797000Y-50546000D03*
X153797000Y-51816000D03*
D17*
X153797000Y-51181000D03*
D16*
X159080200Y-58115200D03*
X157810200Y-58115200D03*
D18*
X158445200Y-58115200D03*
D16*
X159080200Y-59563000D03*
X157810200Y-59563000D03*
D18*
X158445200Y-59563000D03*
D16*
X157810200Y-56692800D03*
X159080200Y-56692800D03*
D18*
X158445200Y-56692800D03*
D16*
X157810200Y-55295800D03*
X159080200Y-55295800D03*
D18*
X158445200Y-55295800D03*
D16*
X154482800Y-120218200D03*
X153212800Y-120218200D03*
D18*
X153847800Y-120218200D03*
D19*
X130810000Y-85090000D03*
D20*
X130810000Y-87630000D03*
D21*
X152400000Y-76200000D03*
D22*
X152400000Y-78740000D03*
X152400000Y-81280000D03*
X152400000Y-83820000D03*
D23*
X166370000Y-119380000D03*
D24*
X168910000Y-119380000D03*
X171450000Y-119380000D03*
D21*
X154940000Y-76200000D03*
D22*
X154940000Y-78740000D03*
X154940000Y-81280000D03*
X154940000Y-83820000D03*
D23*
X130810000Y-120650000D03*
D24*
X133350000Y-120650000D03*
X135890000Y-120650000D03*
D23*
X143510000Y-125730000D03*
D24*
X146050000Y-125730000D03*
X148590000Y-125730000D03*
D23*
X156210000Y-90170000D03*
D24*
X158750000Y-90170000D03*
X161290000Y-90170000D03*
D23*
X156210000Y-97790000D03*
D24*
X158750000Y-97790000D03*
X161290000Y-97790000D03*
D23*
X130810000Y-125730000D03*
D24*
X133350000Y-125730000D03*
X135890000Y-125730000D03*
D25*
X131724400Y-110685400D03*
X131724400Y-112885400D03*
X186080400Y-76334800D03*
X186080400Y-74134800D03*
D26*
X168130400Y-124536200D03*
X165930400Y-124536200D03*
X172626200Y-124510800D03*
X170426200Y-124510800D03*
D25*
X187706000Y-76334800D03*
X187706000Y-74134800D03*
D26*
X161206000Y-57353200D03*
X163406000Y-57353200D03*
X161206000Y-55727600D03*
X163406000Y-55727600D03*
D25*
X149860000Y-76370000D03*
X149860000Y-78570000D03*
X148590000Y-76370000D03*
X148590000Y-78570000D03*
D26*
X175125200Y-85471000D03*
X177325200Y-85471000D03*
X175125200Y-84124800D03*
X177325200Y-84124800D03*
X168486000Y-121539000D03*
X166286000Y-121539000D03*
X175125200Y-82778600D03*
X177325200Y-82778600D03*
X155405000Y-115951000D03*
X153205000Y-115951000D03*
X171797800Y-73304400D03*
X173997800Y-73304400D03*
X156090800Y-87299800D03*
X153890800Y-87299800D03*
X164076200Y-102209600D03*
X166276200Y-102209600D03*
D11*
X185420000Y-80010000D03*
D12*
X187960000Y-80010000D03*
X185420000Y-82550000D03*
X187960000Y-82550000D03*
X185420000Y-85090000D03*
X187960000Y-85090000D03*
X185420000Y-87630000D03*
X187960000Y-87630000D03*
X185420000Y-90170000D03*
X187960000Y-90170000D03*
X185420000Y-92710000D03*
X187960000Y-92710000D03*
X185420000Y-95250000D03*
X187960000Y-95250000D03*
X185420000Y-97790000D03*
X187960000Y-97790000D03*
X185420000Y-100330000D03*
X187960000Y-100330000D03*
X185420000Y-102870000D03*
X187960000Y-102870000D03*
X185420000Y-105410000D03*
X187960000Y-105410000D03*
X185420000Y-107950000D03*
X187960000Y-107950000D03*
X185420000Y-110490000D03*
X187960000Y-110490000D03*
X185420000Y-113030000D03*
X187960000Y-113030000D03*
X185420000Y-115570000D03*
X187960000Y-115570000D03*
X185420000Y-118110000D03*
X187960000Y-118110000D03*
X185420000Y-120650000D03*
X187960000Y-120650000D03*
X185420000Y-123190000D03*
X187960000Y-123190000D03*
X185420000Y-125730000D03*
X187960000Y-125730000D03*
D27*
X182488600Y-77132200D03*
X180488600Y-77132200D03*
X178488600Y-77132200D03*
X176488600Y-77132200D03*
X174488600Y-77132200D03*
X172488600Y-77132200D03*
X170488600Y-77132200D03*
X168488600Y-77132200D03*
X168488600Y-57432200D03*
X170488600Y-57432200D03*
X172488600Y-57432200D03*
X174488600Y-57432200D03*
X176488600Y-57432200D03*
X178488600Y-57432200D03*
X180488600Y-57432200D03*
X182488600Y-57432200D03*
D16*
X144500600Y-86588600D03*
X144500600Y-87858600D03*
X149326600Y-86614000D03*
X149326600Y-87884000D03*
X145694400Y-76200000D03*
X146964400Y-76200000D03*
D18*
X146329400Y-76200000D03*
D16*
X151765000Y-106680000D03*
X153035000Y-106680000D03*
D18*
X152400000Y-106680000D03*
D16*
X159385000Y-78740000D03*
X160655000Y-78740000D03*
D18*
X160020000Y-78740000D03*
D16*
X170484800Y-54432200D03*
X170484800Y-53162200D03*
D17*
X170484800Y-53797200D03*
D16*
X172440600Y-54381400D03*
X172440600Y-53111400D03*
D17*
X172440600Y-53746400D03*
D16*
X174447200Y-54381400D03*
X174447200Y-53111400D03*
D17*
X174447200Y-53746400D03*
D16*
X176479200Y-54330600D03*
X176479200Y-53060600D03*
D17*
X176479200Y-53695600D03*
D16*
X153695400Y-89662000D03*
X153695400Y-90932000D03*
D17*
X153695400Y-90297000D03*
D16*
X154178000Y-97917000D03*
X152908000Y-97917000D03*
D18*
X153543000Y-97917000D03*
D19*
X130810000Y-107950000D03*
D20*
X130810000Y-105410000D03*
D23*
X151130000Y-113030000D03*
D24*
X153670000Y-113030000D03*
X156210000Y-113030000D03*
X158750000Y-113030000D03*
D23*
X130810000Y-97790000D03*
D24*
X133350000Y-97790000D03*
X135890000Y-97790000D03*
X138430000Y-97790000D03*
X140970000Y-97790000D03*
X143510000Y-97790000D03*
D23*
X153670000Y-93980000D03*
D24*
X156210000Y-93980000D03*
X158750000Y-93980000D03*
X161290000Y-93980000D03*
D23*
X130810000Y-116840000D03*
D24*
X133350000Y-116840000D03*
X135890000Y-116840000D03*
D23*
X154940000Y-107950000D03*
D24*
X157480000Y-107950000D03*
X160020000Y-107950000D03*
X162560000Y-107950000D03*
D23*
X158750000Y-76200000D03*
D24*
X161290000Y-76200000D03*
X163830000Y-76200000D03*
D23*
X154940000Y-105410000D03*
D24*
X157480000Y-105410000D03*
X160020000Y-105410000D03*
X162560000Y-105410000D03*
D11*
X171450000Y-83820000D03*
D12*
X171450000Y-86360000D03*
X168910000Y-83820000D03*
X168910000Y-86360000D03*
X166370000Y-83820000D03*
X166370000Y-86360000D03*
X163830000Y-83820000D03*
X163830000Y-86360000D03*
X161290000Y-83820000D03*
X161290000Y-86360000D03*
X158750000Y-83820000D03*
X158750000Y-86360000D03*
D23*
X153670000Y-101600000D03*
D24*
X156210000Y-101600000D03*
X158750000Y-101600000D03*
X161290000Y-101600000D03*
D28*
X181991000Y-50419000D03*
D19*
X173990000Y-113030000D03*
D20*
X171450000Y-113030000D03*
D19*
X166370000Y-113030000D03*
D20*
X163830000Y-113030000D03*
D19*
X143510000Y-121920000D03*
D20*
X143510000Y-119380000D03*
D19*
X180340000Y-113030000D03*
D20*
X177800000Y-113030000D03*
D19*
X124460000Y-52070000D03*
D20*
X124460000Y-54610000D03*
D19*
X187960000Y-52070000D03*
D20*
X187960000Y-54610000D03*
D29*
X160882000Y-53086000D03*
X145442000Y-53086000D03*
X142848000Y-53086000D03*
X127408000Y-53086000D03*
X178916000Y-53086000D03*
X163476000Y-53086000D03*
D30*
X152398660Y-121917900D03*
X158898660Y-121917900D03*
X152398660Y-126417900D03*
X158898660Y-126417900D03*
D31*
X162407600Y-123240800D03*
X138887200Y-107035600D03*
X187198000Y-59791600D03*
D32*
X134763000Y-110302000D03*
X134763000Y-112202000D03*
D33*
X136788000Y-111252000D03*
D34*
X152527000Y-60597000D03*
X153797000Y-60597000D03*
X155067000Y-60597000D03*
X156337000Y-60597000D03*
X156337000Y-53195000D03*
X155067000Y-53195000D03*
X153797000Y-53195000D03*
X152527000Y-53195000D03*
D25*
X133731000Y-108542000D03*
X133731000Y-106342000D03*
M02*
